<?xml version="1.0" encoding="UTF-8" standalone="no" ?>
<!DOCTYPE svg PUBLIC "-//W3C//DTD SVG 1.1//EN" "http://www.w3.org/Graphics/SVG/1.1/DTD/svg11.dtd">
<svg xmlns="http://www.w3.org/2000/svg" xmlns:xlink="http://www.w3.org/1999/xlink" version="1.1" width="1280" height="1024" viewBox="0 0 1280 1024" xml:space="preserve">
<desc>Created with Fabric.js 4.4.0</desc>
<defs>
</defs>
<g transform="matrix(1 0 0 1 640 512)" id="background-logo"  >
<rect style="stroke: none; stroke-width: 0; stroke-dasharray: none; stroke-linecap: butt; stroke-dashoffset: 0; stroke-linejoin: miter; stroke-miterlimit: 4; fill: rgb(255,255,255); fill-opacity: 0; fill-rule: nonzero; opacity: 1;"  paint-order="stroke"  x="-640" y="-512" rx="0" ry="0" width="1280" height="1024" />
</g>
<g transform="matrix(1.9211538461538462 0 0 1.9211538461538462 640 399.38404693108646)" id="logo-logo"  >
<g style=""  paint-order="stroke"   >
		<g transform="matrix(0.11089554924369972 0 0 0.11089554924369972 0 0)"  >
<path style="stroke: none; stroke-width: 1; stroke-dasharray: none; stroke-linecap: butt; stroke-dashoffset: 0; stroke-linejoin: miter; stroke-miterlimit: 4; fill: rgb(77,92,229); fill-rule: nonzero; opacity: 1;"  paint-order="stroke"  transform=" translate(-2540, -2540)" d="M 2160.43 2540 C 2104.31 2490.25 2065.96 2426.49 2065.96 2345.74 C 2065.96 2237.97 2114.9 2153.6899999999996 2213.07 2093.5299999999997 C 2311.2400000000002 2033.3799999999997 2431.2200000000003 2003.2799999999997 2573.36 2003.2799999999997 C 2645.4100000000003 2003.2799999999997 2714.1600000000003 2009.9099999999999 2779.61 2022.7899999999997 L 2781.36 2023.1399999999996 L 2834.21 1872.3199999999997 C 2744.21 1832.6099999999997 2644.68 1810.5499999999997 2540 1810.5499999999997 C 2338.55 1810.5499999999997 2156.15 1892.1999999999998 2024.17 2024.1699999999996 C 1892.2 2156.1499999999996 1810.5500000000002 2338.5499999999997 1810.5500000000002 2539.9999999999995 C 1810.5500000000002 2718.1899999999996 1874.42 2881.4599999999996 1980.5100000000002 3008.1299999999997 L 1921.3000000000002 3177.12 L 1912.0200000000002 3167.98 C 1751.3100000000002 3007.27 1651.8700000000003 2785.23 1651.8700000000003 2540 C 1651.8700000000003 2294.77 1751.3100000000004 2072.73 1912.0200000000004 1912.02 C 2072.7300000000005 1751.31 2294.7700000000004 1651.87 2540.0000000000005 1651.87 C 2689.5400000000004 1651.87 2830.4600000000005 1688.86 2954.1200000000003 1754.1599999999999 C 3025.1200000000003 1791.6699999999998 3026.8500000000004 1800.87 2999.6300000000006 1878.59 L 2973.4700000000007 1953.2199999999998 L 2933.3200000000006 2067.74 L 2905.4400000000005 2147.22 L 2904.7900000000004 2149.1699999999996 L 2896.2400000000002 2173.5499999999997 L 2896.17 2173.74 L 2878.36 2224.52 L 2876.7000000000003 2229.35 C 2842.4300000000003 2328.95 2865.32 2318.64 2759.53 2318.64 L 2677.8 2318.64 L 2721.8 2193.1099999999997 C 2694.69 2151.0899999999997 2359.4900000000002 2128.74 2359.4900000000002 2263.7599999999998 C 2359.4900000000002 2291.87 2378.0000000000005 2315.99 2415.36 2336.49 C 2433.54 2345.41 2460.6400000000003 2355.3199999999997 2497.32 2366.5699999999997 C 2534.03 2377.7899999999995 2579.63 2390.6899999999996 2633.51 2405.24 C 2725.94 2427.68 2840.44 2469.89 2919.54 2540 C 2975.67 2589.75 3014.0099999999998 2653.51 3014.0099999999998 2734.26 C 3014.0099999999998 2842.03 2965.08 2926.3100000000004 2866.91 2986.4700000000003 C 2768.74 3046.6200000000003 2648.7599999999998 3076.7200000000003 2506.62 3076.7200000000003 C 2434.5699999999997 3076.7200000000003 2365.8199999999997 3070.09 2300.37 3057.21 L 2298.64 3056.86 L 2245.77 3207.6800000000003 C 2335.7599999999998 3247.3900000000003 2435.32 3269.4500000000003 2540 3269.4500000000003 C 2741.45 3269.4500000000003 2923.85 3187.8 3055.83 3055.8300000000004 C 3187.7999999999997 2923.8500000000004 3269.45 2741.4500000000003 3269.45 2540.0000000000005 C 3269.45 2361.8100000000004 3205.58 2198.5400000000004 3099.49 2071.8700000000003 L 3158.7 1902.8800000000003 L 3167.98 1912.0200000000004 C 3328.69 2072.7300000000005 3428.13 2294.7700000000004 3428.13 2540.0000000000005 C 3428.13 2785.2300000000005 3328.69 3007.2700000000004 3167.98 3167.9800000000005 C 3007.27 3328.6900000000005 2785.23 3428.1300000000006 2540 3428.1300000000006 C 2390.46 3428.1300000000006 2249.54 3391.140000000001 2125.88 3325.8400000000006 C 2055.26 3288.5200000000004 2053.17 3279.2000000000007 2079.9500000000003 3202.620000000001 L 2080.3700000000003 3201.4100000000008 L 2106.53 3126.7800000000007 L 2146.6600000000003 3012.2600000000007 L 2174.5400000000004 2932.7800000000007 L 2175.1900000000005 2930.830000000001 L 2175.4500000000007 2930.150000000001 L 2201.6100000000006 2855.480000000001 L 2201.7100000000005 2855.170000000001 C 2238.2300000000005 2750.750000000001 2213.0900000000006 2761.360000000001 2320.4400000000005 2761.360000000001 L 2402.1700000000005 2761.360000000001 L 2358.1800000000007 2886.8900000000012 C 2385.2800000000007 2928.910000000001 2720.480000000001 2951.260000000001 2720.480000000001 2816.240000000001 C 2720.480000000001 2788.130000000001 2701.980000000001 2764.010000000001 2664.620000000001 2743.510000000001 C 2646.440000000001 2734.590000000001 2619.3400000000006 2724.680000000001 2582.6600000000008 2713.430000000001 C 2545.9500000000007 2702.2100000000014 2500.3400000000006 2689.3100000000013 2446.4700000000007 2674.760000000001 C 2354.0300000000007 2652.320000000001 2239.540000000001 2610.110000000001 2160.4300000000007 2540.000000000001 z" stroke-linecap="round" />
</g>
</g>
</g>
<g transform="matrix(1.9211538461538462 0 0 1.9211538461538462 638.6744038461538 687.3564917296351)" id="text-logo"  >
<g style=""  paint-order="stroke"   >
		<g transform="matrix(1 0 0 1 0 0)" id="text-logo-path-0"  >
<path style="stroke: none; stroke-width: 0; stroke-dasharray: none; stroke-linecap: butt; stroke-dashoffset: 0; stroke-linejoin: miter; stroke-miterlimit: 4; fill: rgb(77,92,229); fill-rule: nonzero; opacity: 1;"  paint-order="stroke"  transform=" translate(-153, 18.603251612396896)" d="M 11.22 -22.62 C 10.68 -22.62 10.38 -22.86 10.38 -23.46 L 10.38 -28.8 C 10.38 -29.4 10.68 -29.64 11.22 -29.64 L 25.86 -29.64 L 25.86 -37.2 L 12.42 -37.5 C 5.4 -37.68 1.56 -34.02 1.56 -27.84 L 1.56 -24.6 C 1.56 -18.42 5.4 -14.76 12.42 -14.76 L 17.64 -14.76 C 18.18 -14.76 18.48 -14.52 18.48 -13.92 L 18.48 -8.4 C 18.48 -7.8 18.18 -7.56 17.64 -7.56 L 2.52 -7.56 L 2.52 0 L 16.38 0.3 C 23.4 0.48 27.24 -3.18 27.24 -9.36 L 27.24 -12.78 C 27.24 -18.96 23.4 -22.62 16.38 -22.62 Z M 56.82 0 L 56.82 -29.64 L 65.28 -29.64 L 65.28 -37.2 L 39.72 -37.2 L 39.72 -29.64 L 48.18 -29.64 L 48.18 0 Z M 108.9 0 L 101.04 -37.2 L 92.58 -37.5 C 87.18 -37.68 85.62 -36 84.3 -30.48 L 76.68 0 L 84.78 0 L 86.64 -8.28 L 98.64 -8.28 L 100.26 0 Z M 91.38 -28.92 C 91.5 -29.52 91.62 -29.76 92.22 -29.76 L 94.44 -29.76 L 97.2 -15.72 L 88.32 -15.72 Z M 151.14 -9.36 L 151.14 -11.58 C 151.14 -15.18 149.7 -17.58 146.76 -18.84 C 149.04 -20.16 150.3 -22.44 150.3 -25.56 L 150.3 -27.84 C 150.3 -34.02 146.46 -37.62 139.44 -37.5 L 123.66 -37.2 L 123.66 0 L 140.34 0.3 C 147.36 0.42 151.14 -3.18 151.14 -9.36 Z M 141.54 -15.36 C 142.08 -15.36 142.38 -15.12 142.38 -14.52 L 142.38 -7.92 C 142.38 -7.32 142.08 -7.08 141.54 -7.08 L 132.36 -7.08 L 132.36 -15.36 Z M 140.7 -30.12 C 141.24 -30.12 141.48 -29.88 141.48 -29.28 L 141.48 -23.22 C 141.48 -22.62 141.24 -22.38 140.7 -22.38 L 132.36 -22.38 L 132.36 -30.12 Z M 177.66 0 L 177.66 -37.2 L 168.96 -37.2 L 168.96 0 Z M 217.92 -7.56 L 205.26 -7.56 L 205.26 -37.2 L 196.56 -37.2 L 196.56 0 L 217.92 0 Z M 261.54 0 L 253.68 -37.2 L 245.22 -37.5 C 239.82 -37.68 238.26 -36 236.94 -30.48 L 229.32 0 L 237.42 0 L 239.28 -8.28 L 251.28 -8.28 L 252.9 0 Z M 244.02 -28.92 C 244.14 -29.52 244.26 -29.76 244.86 -29.76 L 247.08 -29.76 L 249.84 -15.72 L 240.96 -15.72 Z M 298.32 0 L 304.44 0 L 304.44 -37.2 L 297 -37.2 L 297 -14.88 L 281.82 -37.2 L 275.76 -37.2 L 275.76 0 L 283.2 0 L 283.2 -22.32 Z" stroke-linecap="round" />
</g>
</g>
</g>
</svg>