<svg width="30" height="30" viewBox="0 0 30 30" fill="none" xmlns="http://www.w3.org/2000/svg">
<path id="Vector" d="M23.367 3.648L20.367 2.073C17.733 0.6915 16.416 0 15 0C13.584 0 12.267 0.69 9.633 2.073L9.1515 2.3265L22.536 9.975L28.56 6.96C27.591 5.862 26.028 5.0415 23.367 3.645V3.648ZM29.622 8.946L23.625 11.946V16.5C23.625 16.7984 23.5065 17.0845 23.2955 17.2955C23.0845 17.5065 22.7984 17.625 22.5 17.625C22.2016 17.625 21.9155 17.5065 21.7045 17.2955C21.4935 17.0845 21.375 16.7984 21.375 16.5V13.0695L16.125 15.6945V29.856C17.202 29.5875 18.4275 28.9455 20.367 27.927L23.367 26.352C26.5935 24.6585 28.2075 23.8125 29.1045 22.29C30 20.769 30 18.8745 30 15.09V14.9145C30 12.075 30 10.299 29.622 8.946ZM13.875 29.856V15.696L0.378 8.946C1.3411e-07 10.299 0 12.075 0 14.9115V15.087C0 18.8745 -1.78814e-07 20.769 0.8955 22.29C1.7925 23.8125 3.4065 24.66 6.633 26.3535L9.633 27.927C11.5725 28.9455 12.798 29.5875 13.875 29.856ZM1.44 6.9615L15 13.7415L20.1165 11.184L6.7875 3.567L6.633 3.648C3.9735 5.043 2.409 5.8635 1.44 6.963V6.9615Z" fill="url(#paint0_linear_412_351)"/>
<defs>
<linearGradient id="paint0_linear_412_351" x1="10.7285" y1="-28.0281" x2="62.9143" y2="1.65124" gradientUnits="userSpaceOnUse">
<stop stop-color="#000F7A"/>
<stop offset="1" stop-color="#59C7F6"/>
</linearGradient>
</defs>
</svg>
