<svg width="28" height="29" viewBox="0 0 28 29" fill="none" xmlns="http://www.w3.org/2000/svg">
<g id="bxl:twitter">
<path id="Vector" d="M22.9051 9.82984C22.9203 10.034 22.9203 10.237 22.9203 10.44C22.9203 16.6525 18.1918 23.8112 9.55031 23.8112C6.88798 23.8112 4.41465 23.04 2.33331 21.7007C2.71131 21.7438 3.07531 21.759 3.46848 21.759C5.58364 21.7641 7.6389 21.0568 9.30298 19.7512C8.3223 19.7334 7.37165 19.4099 6.58376 18.8257C5.79586 18.2415 5.21006 17.4259 4.90815 16.4927C5.19865 16.5358 5.49031 16.565 5.79598 16.565C6.21715 16.565 6.64065 16.5067 7.03381 16.4052C5.96953 16.1903 5.01253 15.6134 4.32553 14.7726C3.63854 13.9319 3.26395 12.8791 3.26548 11.7933V11.735C3.89198 12.0838 4.61881 12.302 5.38881 12.3312C4.74375 11.9025 4.21482 11.3209 3.84921 10.6381C3.4836 9.95533 3.29268 9.19267 3.29348 8.41818C3.29348 7.54551 3.52565 6.74518 3.93281 6.04751C5.11364 7.50003 6.5864 8.68833 8.2557 9.53544C9.92501 10.3826 11.7536 10.8696 13.6231 10.965C13.5508 10.615 13.5065 10.2522 13.5065 9.88818C13.5062 9.27097 13.6275 8.65974 13.8636 8.08946C14.0996 7.51917 14.4458 7.001 14.8822 6.56456C15.3186 6.12813 15.8368 5.78199 16.4071 5.54593C16.9774 5.30988 17.5886 5.18854 18.2058 5.18884C19.5591 5.18884 20.7806 5.75584 21.6393 6.67284C22.6914 6.4694 23.7003 6.08534 24.6213 5.53768C24.2706 6.62363 23.536 7.54446 22.5551 8.12768C23.4882 8.02125 24.4002 7.77587 25.2606 7.39968C24.618 8.33662 23.8216 9.15825 22.9051 9.82984Z" fill="black"/>
</g>
</svg>
