<svg width="16" height="17" viewBox="0 0 16 17" fill="none" xmlns="http://www.w3.org/2000/svg">
<g id="mingcute:add-line" clip-path="url(#clip0_403_366)">
<g id="Group">
<path id="Vector" d="M7.33333 13.8334C7.33333 14.0102 7.40357 14.1798 7.5286 14.3048C7.65362 14.4299 7.82319 14.5001 8 14.5001C8.17681 14.5001 8.34638 14.4299 8.4714 14.3048C8.59643 14.1798 8.66667 14.0102 8.66667 13.8334V9.16676H13.3333C13.5101 9.16676 13.6797 9.09652 13.8047 8.9715C13.9298 8.84647 14 8.6769 14 8.50009C14 8.32328 13.9298 8.15371 13.8047 8.02869C13.6797 7.90366 13.5101 7.83343 13.3333 7.83343H8.66667V3.16676C8.66667 2.98995 8.59643 2.82038 8.4714 2.69535C8.34638 2.57033 8.17681 2.50009 8 2.50009C7.82319 2.50009 7.65362 2.57033 7.5286 2.69535C7.40357 2.82038 7.33333 2.98995 7.33333 3.16676V7.83343H2.66667C2.48986 7.83343 2.32029 7.90366 2.19526 8.02869C2.07024 8.15371 2 8.32328 2 8.50009C2 8.6769 2.07024 8.84647 2.19526 8.9715C2.32029 9.09652 2.48986 9.16676 2.66667 9.16676H7.33333V13.8334Z" fill="url(#paint0_linear_403_366)"/>
</g>
</g>
<defs>
<linearGradient id="paint0_linear_403_366" x1="6.29139" y1="-8.76522" x2="27.2147" y2="3.07725" gradientUnits="userSpaceOnUse">
<stop stop-color="#000F7A"/>
<stop offset="1" stop-color="#59C7F6"/>
</linearGradient>
<clipPath id="clip0_403_366">
<rect width="16" height="16" fill="white" transform="translate(0 0.500092)"/>
</clipPath>
</defs>
</svg>
