<svg width="31" height="30" viewBox="0 0 31 30" fill="none" xmlns="http://www.w3.org/2000/svg">
<path id="Vector" fill-rule="evenodd" clip-rule="evenodd" d="M12.0547 1.79989C11.8188 2.01335 11.5709 2.21318 11.3122 2.39839C10.8652 2.69839 10.3627 2.90539 9.83467 3.01039C9.60517 3.05539 9.36517 3.07489 8.88667 3.11239C7.68517 3.20839 7.08367 3.25639 6.58267 3.43339C6.00982 3.63565 5.48952 3.96359 5.05995 4.39316C4.63037 4.82274 4.30243 5.34304 4.10017 5.91589C3.92317 6.41689 3.87517 7.01839 3.77917 8.21989C3.76281 8.53754 3.72876 8.85403 3.67717 9.16789C3.57217 9.69589 3.36517 10.1984 3.06517 10.6454C2.93467 10.8404 2.77867 11.0234 2.46667 11.3879C1.68517 12.3059 1.29367 12.7649 1.06417 13.2449C0.534671 14.3549 0.534671 15.6449 1.06417 16.7549C1.29367 17.2349 1.68517 17.6939 2.46667 18.6119C2.77867 18.9764 2.93467 19.1594 3.06517 19.3544C3.36517 19.8014 3.57217 20.3039 3.67717 20.8319C3.72217 21.0614 3.74167 21.3014 3.77917 21.7799C3.87517 22.9814 3.92317 23.5829 4.10017 24.0839C4.30243 24.6567 4.63037 25.177 5.05995 25.6066C5.48952 26.0362 6.00982 26.3641 6.58267 26.5664C7.08367 26.7434 7.68517 26.7914 8.88667 26.8874C9.36517 26.9249 9.60517 26.9444 9.83467 26.9894C10.3627 27.0944 10.8652 27.3029 11.3122 27.6014C11.5072 27.7319 11.6902 27.8879 12.0547 28.1999C12.9727 28.9814 13.4317 29.3729 13.9117 29.6024C15.0217 30.1319 16.3117 30.1319 17.4217 29.6024C17.9017 29.3729 18.3607 28.9814 19.2787 28.1999C19.6432 27.8879 19.8262 27.7319 20.0212 27.6014C20.4682 27.3014 20.9707 27.0944 21.4987 26.9894C21.7282 26.9444 21.9682 26.9249 22.4467 26.8874C23.6482 26.7914 24.2497 26.7434 24.7507 26.5664C25.3235 26.3641 25.8438 26.0362 26.2734 25.6066C26.703 25.177 27.0309 24.6567 27.2332 24.0839C27.4102 23.5829 27.4582 22.9814 27.5542 21.7799C27.5917 21.3014 27.6112 21.0614 27.6562 20.8319C27.7612 20.3039 27.9697 19.8014 28.2682 19.3544C28.3987 19.1594 28.5547 18.9764 28.8667 18.6119C29.6482 17.6939 30.0397 17.2349 30.2692 16.7549C30.7987 15.6449 30.7987 14.3549 30.2692 13.2449C30.0397 12.7649 29.6482 12.3059 28.8667 11.3879C28.6532 11.152 28.4534 10.9041 28.2682 10.6454C27.9685 10.1982 27.7604 9.69602 27.6562 9.16789C27.6046 8.85403 27.5706 8.53754 27.5542 8.21989C27.4582 7.01839 27.4102 6.41689 27.2332 5.91589C27.0309 5.34304 26.703 4.82274 26.2734 4.39316C25.8438 3.96359 25.3235 3.63565 24.7507 3.43339C24.2497 3.25639 23.6482 3.20839 22.4467 3.11239C22.129 3.09603 21.8125 3.06198 21.4987 3.01039C20.9705 2.90612 20.4683 2.69811 20.0212 2.39839C19.7628 2.21279 19.5149 2.01298 19.2787 1.79989C18.3607 1.01839 17.9017 0.62689 17.4217 0.39739C16.8737 0.135461 16.274 -0.000488281 15.6667 -0.000488281C15.0593 -0.000488281 14.4597 0.135461 13.9117 0.39739C13.4317 0.62689 12.9727 1.01839 12.0547 1.79989ZM21.4132 9.25489C21.6416 9.4838 21.7699 9.79399 21.7699 10.1174C21.7699 10.4408 21.6416 10.751 21.4132 10.9799L11.6467 20.7479C11.5354 20.8697 11.4006 20.9677 11.2504 21.0359C11.1002 21.1042 10.9377 21.1413 10.7728 21.145C10.6078 21.1487 10.4439 21.119 10.2907 21.0576C10.1376 20.9961 9.99854 20.9043 9.88188 20.7877C9.76522 20.671 9.67342 20.5319 9.612 20.3788C9.55059 20.2257 9.52085 20.0617 9.52457 19.8968C9.52829 19.7318 9.56539 19.5694 9.63364 19.4192C9.70189 19.269 9.79987 19.1342 9.92167 19.0229L19.6867 9.25639C19.9156 9.02794 20.2258 8.89964 20.5492 8.89964C20.8726 8.89964 21.1828 9.02794 21.4117 9.25639L21.4132 9.25489ZM21.3637 19.0694C21.3637 19.501 21.1922 19.915 20.887 20.2202C20.5818 20.5254 20.1678 20.6969 19.7362 20.6969C19.3045 20.6969 18.8906 20.5254 18.5854 20.2202C18.2801 19.915 18.1087 19.501 18.1087 19.0694C18.1087 18.6378 18.2801 18.2238 18.5854 17.9186C18.8906 17.6134 19.3045 17.4419 19.7362 17.4419C20.1678 17.4419 20.5818 17.6134 20.887 17.9186C21.1922 18.2238 21.3637 18.6378 21.3637 19.0694ZM11.5987 12.5594C11.8124 12.5594 12.024 12.5173 12.2215 12.4355C12.4189 12.3537 12.5984 12.2338 12.7495 12.0827C12.9006 11.9316 13.0205 11.7522 13.1023 11.5547C13.1841 11.3573 13.2262 11.1456 13.2262 10.9319C13.2262 10.7182 13.1841 10.5065 13.1023 10.3091C13.0205 10.1116 12.9006 9.9322 12.7495 9.78107C12.5984 9.62995 12.4189 9.51007 12.2215 9.42828C12.024 9.34649 11.8124 9.30439 11.5987 9.30439C11.167 9.30439 10.7531 9.47586 10.4479 9.78107C10.1426 10.0863 9.97117 10.5003 9.97117 10.9319C9.97117 11.3635 10.1426 11.7775 10.4479 12.0827C10.7531 12.3879 11.167 12.5594 11.5987 12.5594Z" fill="url(#paint0_linear_412_345)"/>
<defs>
<linearGradient id="paint0_linear_412_345" x1="11.3953" y1="-28.1638" x2="63.7028" y2="1.44128" gradientUnits="userSpaceOnUse">
<stop stop-color="#000F7A"/>
<stop offset="1" stop-color="#59C7F6"/>
</linearGradient>
</defs>
</svg>
