<svg width="20" height="20" viewBox="0 0 20 20" fill="none" xmlns="http://www.w3.org/2000/svg">
<g id="solar:shield-keyhole-minimalistic-linear">
<g id="Group">
<path id="Vector" d="M2.5 8.68083C2.5 6.01583 2.5 4.68333 2.815 4.235C3.12917 3.7875 4.38167 3.35833 6.8875 2.50083L7.365 2.3375C8.67083 1.89 9.32333 1.66667 10 1.66667C10.6758 1.66667 11.3292 1.89 12.635 2.3375L13.1125 2.50083C15.6183 3.35833 16.8708 3.7875 17.185 4.235C17.5 4.68333 17.5 6.01667 17.5 8.68083V9.9925C17.5 14.6908 13.9675 16.9717 11.7508 17.9392C11.15 18.2017 10.85 18.3333 10 18.3333C9.15 18.3333 8.85 18.2017 8.24917 17.9392C6.0325 16.9708 2.5 14.6917 2.5 9.9925V8.68083Z" stroke="black" stroke-width="1.5"/>
<path id="Vector_2" d="M10 11.25V13.75M11.25 10.915C10.9654 11.0863 10.6496 11.1992 10.3209 11.2471C9.99227 11.295 9.65735 11.2769 9.33574 11.1939C9.01414 11.1109 8.7123 10.9646 8.44786 10.7637C8.18341 10.5627 7.96167 10.3111 7.79557 10.0234C7.62947 9.7358 7.52235 9.41796 7.48047 9.08847C7.43858 8.75898 7.46278 8.42444 7.55163 8.10441C7.64049 7.78437 7.79223 7.48525 7.99798 7.22451C8.20374 6.96378 8.45939 6.74666 8.75 6.58583C9.32322 6.26861 9.99806 6.18907 10.6293 6.36434C11.2606 6.53961 11.7978 6.95567 12.1255 7.52301C12.4531 8.09035 12.5449 8.76363 12.3812 9.39798C12.2175 10.0323 11.8113 10.5771 11.25 10.915Z" stroke="black" stroke-width="1.5" stroke-linecap="round"/>
</g>
</g>
</svg>
