<svg width="20" height="20" viewBox="0 0 20 20" fill="none" xmlns="http://www.w3.org/2000/svg">
<g id="solar:wad-of-money-linear">
<g id="Group">
<path id="Vector" d="M7.50002 15.8333C5.15919 15.8333 3.98919 15.8333 3.14835 15.2717C2.78426 15.0284 2.47165 14.7158 2.22835 14.3517C1.66669 13.5108 1.66669 12.3417 1.66669 10C1.66669 7.65916 1.66669 6.48916 2.22835 5.64833C2.47161 5.28421 2.78423 4.97159 3.14835 4.72833C3.98919 4.16666 5.15835 4.16666 7.50002 4.16666H12.5C14.8409 4.16666 16.0109 4.16666 16.8517 4.72833C17.2158 4.97159 17.5284 5.28421 17.7717 5.64833C18.3334 6.48916 18.3334 7.65833 18.3334 10C18.3334 12.3408 18.3334 13.5108 17.7717 14.3517C17.5284 14.7157 17.2158 15.0284 16.8517 15.2717C16.0109 15.8333 14.8417 15.8333 12.5 15.8333H7.50002Z" stroke="black" stroke-width="1.5"/>
<path id="Vector_2" d="M7.5 7.5C6.83696 7.5 6.20107 7.76339 5.73223 8.23223C5.26339 8.70107 5 9.33696 5 10C5 10.663 5.26339 11.2989 5.73223 11.7678C6.20107 12.2366 6.83696 12.5 7.5 12.5M12.5 7.5C13.163 7.5 13.7989 7.76339 14.2678 8.23223C14.7366 8.70107 15 9.33696 15 10C15 10.663 14.7366 11.2989 14.2678 11.7678C13.7989 12.2366 13.163 12.5 12.5 12.5" stroke="black" stroke-width="1.5"/>
<path id="Vector_3" d="M7.5 4.16666V15.4167M12.5 4.16666V15.4167" stroke="black" stroke-width="1.5" stroke-linecap="round"/>
</g>
</g>
</svg>
