<svg width="20" height="20" viewBox="0 0 20 20" fill="none" xmlns="http://www.w3.org/2000/svg">
<g id="solar:key-linear" clip-path="url(#clip0_591_346)">
<g id="Group">
<path id="Vector" d="M13.0667 12.1558C15.975 12.1558 18.3333 9.80751 18.3333 6.91084C18.3333 4.01501 15.975 1.66667 13.0667 1.66667C10.1583 1.66667 7.80165 4.01501 7.80165 6.91084C7.80165 8.25251 8.41415 9.22834 8.41415 9.22834L2.04582 15.57C1.75999 15.855 1.35999 16.595 2.04582 17.2783L2.78082 18.01C3.06665 18.2542 3.78499 18.5958 4.37249 18.01L5.23082 17.1567C6.08749 18.01 7.06749 17.5225 7.43499 17.0342C8.04665 16.1808 7.31249 15.3267 7.31249 15.3267L7.55749 15.0825C8.73249 16.2533 9.76165 15.5708 10.1292 15.0825C10.7417 14.2292 10.1292 13.375 10.1292 13.375C9.88415 12.8875 9.39415 12.8875 10.0067 12.2775L10.7417 11.5458C11.3292 12.0333 12.5375 12.1558 13.0683 12.1558H13.0667Z" stroke="black" stroke-width="1.5" stroke-linejoin="round"/>
<path id="Vector_2" d="M14.9042 6.91167C14.9031 7.39775 14.709 7.8635 14.3645 8.20652C14.0201 8.54953 13.5536 8.74172 13.0675 8.74084C12.5814 8.74172 12.1149 8.54953 11.7705 8.20652C11.426 7.8635 11.2319 7.39775 11.2308 6.91167C11.2313 6.67091 11.2791 6.4326 11.3717 6.21033C11.4642 5.98807 11.5996 5.78621 11.7702 5.61628C11.9407 5.44635 12.1431 5.31167 12.3657 5.21995C12.5883 5.12822 12.8267 5.08123 13.0675 5.08167C13.3083 5.08123 13.5467 5.12822 13.7693 5.21995C13.9919 5.31167 14.1943 5.44635 14.3648 5.61628C14.5354 5.78621 14.6708 5.98807 14.7633 6.21033C14.8559 6.4326 14.9037 6.67091 14.9042 6.91167Z" stroke="black" stroke-width="1.5"/>
</g>
</g>
<defs>
<clipPath id="clip0_591_346">
<rect width="20" height="20" fill="white"/>
</clipPath>
</defs>
</svg>
