<svg width="20" height="20" viewBox="0 0 20 20" fill="none" xmlns="http://www.w3.org/2000/svg">
<g id="solar:clipboard-list-linear">
<g id="Group">
<path id="Vector" d="M13.3333 3.335C15.1458 3.345 16.1275 3.42583 16.7675 4.06583C17.5 4.79833 17.5 5.97667 17.5 8.33333V13.3333C17.5 15.6908 17.5 16.8692 16.7675 17.6017C16.0358 18.3333 14.8567 18.3333 12.5 18.3333H7.5C5.14333 18.3333 3.96417 18.3333 3.2325 17.6017C2.5 16.8683 2.5 15.6908 2.5 13.3333V8.33333C2.5 5.97667 2.5 4.79833 3.2325 4.06583C3.8725 3.42583 4.85417 3.345 6.66667 3.335" stroke="black" stroke-width="1.5"/>
<path id="Vector_2" d="M8.74998 11.6667H14.1666M5.83331 11.6667H6.24998M5.83331 8.75H6.24998M5.83331 14.5833H6.24998M8.74998 8.75H14.1666M8.74998 14.5833H14.1666" stroke="black" stroke-width="1.5" stroke-linecap="round"/>
<path id="Vector_3" d="M6.66669 2.91666C6.66669 2.58514 6.79838 2.2672 7.0328 2.03278C7.26722 1.79836 7.58517 1.66666 7.91669 1.66666H12.0834C12.4149 1.66666 12.7328 1.79836 12.9672 2.03278C13.2017 2.2672 13.3334 2.58514 13.3334 2.91666V3.75C13.3334 4.08152 13.2017 4.39946 12.9672 4.63388C12.7328 4.8683 12.4149 5 12.0834 5H7.91669C7.58517 5 7.26722 4.8683 7.0328 4.63388C6.79838 4.39946 6.66669 4.08152 6.66669 3.75V2.91666Z" stroke="black" stroke-width="1.5"/>
</g>
</g>
</svg>
