<svg width="20" height="20" viewBox="0 0 20 20" fill="none" xmlns="http://www.w3.org/2000/svg">
<g id="solar:circle-top-up-bold">
<g id="Group">
<path id="Vector" fill-rule="evenodd" clip-rule="evenodd" d="M12.0833 2.29167C12.0833 2.12591 12.1491 1.96694 12.2663 1.84973C12.3835 1.73252 12.5425 1.66667 12.7083 1.66667H17.7083C17.874 1.66667 18.033 1.73252 18.1502 1.84973C18.2674 1.96694 18.3333 2.12591 18.3333 2.29167V7.29167C18.3333 7.45743 18.2674 7.6164 18.1502 7.73361C18.033 7.85082 17.874 7.91667 17.7083 7.91667C17.5425 7.91667 17.3835 7.85082 17.2663 7.73361C17.1491 7.6164 17.0833 7.45743 17.0833 7.29167V3.80001L11.4833 9.40001C11.426 9.46141 11.357 9.51066 11.2804 9.54482C11.2037 9.57898 11.1209 9.59735 11.037 9.59883C10.9531 9.60031 10.8698 9.58488 10.7919 9.55344C10.7141 9.52201 10.6434 9.47522 10.5841 9.41587C10.5247 9.35652 10.4779 9.28583 10.4465 9.208C10.4151 9.13018 10.3996 9.04682 10.4011 8.9629C10.4026 8.87898 10.4209 8.79622 10.4551 8.71956C10.4893 8.64289 10.5385 8.57389 10.5999 8.51667L16.1999 2.91667H12.7083C12.5425 2.91667 12.3835 2.85082 12.2663 2.73361C12.1491 2.6164 12.0833 2.45743 12.0833 2.29167Z" fill="white"/>
<path id="Vector_2" d="M9.37496 2.29167C4.77246 2.29167 1.04163 6.02251 1.04163 10.625C1.04163 15.2275 4.77246 18.9583 9.37496 18.9583C13.9775 18.9583 17.7083 15.2275 17.7083 10.625C17.7083 10.1258 17.6641 9.6375 17.58 9.1625C17.106 9.12999 16.662 8.91874 16.3378 8.57147C16.0135 8.22419 15.8332 7.76678 15.8333 7.29167V6.81834L12.3675 10.2842C12.0158 10.6358 11.5389 10.8333 11.0416 10.8333C10.5443 10.8333 10.0674 10.6358 9.71579 10.2842C9.36416 9.93254 9.16661 9.45562 9.16661 8.95834C9.16661 8.46105 9.36416 7.98414 9.71579 7.63251L13.1816 4.16667H12.7083C12.2332 4.16673 11.7758 3.98643 11.4285 3.6622C11.0812 3.33797 10.87 2.894 10.8375 2.42001C10.3547 2.33449 9.86528 2.29155 9.37496 2.29167Z" fill="white"/>
</g>
</g>
</svg>
