<svg width="20" height="20" viewBox="0 0 20 20" fill="none" xmlns="http://www.w3.org/2000/svg">
<g id="solar:circle-top-down-bold">
<g id="Group">
<path id="Vector" fill-rule="evenodd" clip-rule="evenodd" d="M17.9417 2.05831C18.0587 2.1755 18.1244 2.33435 18.1244 2.49998C18.1244 2.6656 18.0587 2.82446 17.9417 2.94164L11.5083 9.37498H14.4533C14.6191 9.37498 14.7781 9.44083 14.8953 9.55804C15.0125 9.67525 15.0783 9.83422 15.0783 9.99998C15.0783 10.1657 15.0125 10.3247 14.8953 10.4419C14.7781 10.5591 14.6191 10.625 14.4533 10.625H10C9.83424 10.625 9.67527 10.5591 9.55806 10.4419C9.44085 10.3247 9.375 10.1657 9.375 9.99998V5.54665C9.375 5.38088 9.44085 5.22191 9.55806 5.1047C9.67527 4.98749 9.83424 4.92165 10 4.92165C10.1658 4.92165 10.3247 4.98749 10.4419 5.1047C10.5592 5.22191 10.625 5.38088 10.625 5.54665V8.49081L17.0583 2.05748C17.1755 1.94044 17.3344 1.87469 17.5 1.87469C17.6656 1.87469 17.8245 1.94127 17.9417 2.05831Z" fill="white"/>
<path id="Vector_2" d="M17.0683 5.5833L14.525 8.12664C15.0144 8.1472 15.4763 8.35849 15.8119 8.71529C16.1476 9.07208 16.3303 9.54606 16.3209 10.0358C16.3115 10.5256 16.1109 10.9922 15.7618 11.3359C15.4128 11.6797 14.9431 11.8731 14.4533 11.875H9.99996C9.50268 11.875 9.02576 11.6774 8.67413 11.3258C8.3225 10.9742 8.12496 10.4973 8.12496 9.99997V5.54664C8.1268 5.05679 8.32027 4.58711 8.66398 4.23809C9.00769 3.88906 9.47434 3.6884 9.9641 3.67904C10.4539 3.66967 10.9278 3.85235 11.2846 4.18798C11.6414 4.52361 11.8527 4.98555 11.8733 5.47497L14.4166 2.93164C13.0929 2.10251 11.5619 1.66402 9.99996 1.66664C5.39746 1.66664 1.66663 5.39747 1.66663 9.99997C1.66663 14.6025 5.39746 18.3333 9.99996 18.3333C14.6025 18.3333 18.3333 14.6025 18.3333 9.99997C18.3359 8.438 17.8974 6.90704 17.0683 5.5833Z" fill="white"/>
</g>
</g>
</svg>
