<svg width="20" height="20" viewBox="0 0 20 20" fill="none" xmlns="http://www.w3.org/2000/svg">
<g id="solar:shield-keyhole-minimalistic-bold">
<g id="Group">
<path id="Vector" d="M9.06251 7.12667C9.27556 7.00305 9.51093 6.92273 9.7551 6.8903C9.99927 6.85787 10.2474 6.87398 10.4854 6.9377C10.7233 7.00143 10.9463 7.11151 11.1416 7.26163C11.3369 7.41175 11.5006 7.59895 11.6233 7.8125C11.747 8.02555 11.8273 8.26092 11.8597 8.50509C11.8921 8.74926 11.876 8.99743 11.8123 9.23536C11.7486 9.47329 11.6385 9.6963 11.4884 9.89158C11.3383 10.0869 11.1511 10.2506 10.9375 10.3733C10.5077 10.6098 10.0024 10.6684 9.52985 10.5366C9.05733 10.4048 8.65528 10.0931 8.40995 9.66828C8.16462 9.24348 8.09555 8.73945 8.21754 8.2643C8.33953 7.78915 8.64288 7.38074 9.06251 7.12667Z" fill="white"/>
<path id="Vector_2" fill-rule="evenodd" clip-rule="evenodd" d="M2.815 4.235C2.5 4.68333 2.5 6.01667 2.5 8.68083V9.9925C2.5 14.6908 6.0325 16.9717 8.24917 17.9392C8.85 18.2017 9.15083 18.3333 10 18.3333C10.85 18.3333 11.15 18.2017 11.7508 17.9392C13.9675 16.9708 17.5 14.6917 17.5 9.9925V8.68083C17.5 6.01583 17.5 4.68333 17.185 4.235C16.8708 3.7875 15.6183 3.35833 13.1125 2.50083L12.635 2.3375C11.3292 1.89 10.6767 1.66667 10 1.66667C9.32417 1.66667 8.67083 1.89 7.365 2.3375L6.8875 2.5C4.38167 3.35833 3.12917 3.7875 2.815 4.235ZM10.3733 5.64833C9.57405 5.55507 8.7696 5.77372 8.12751 6.25877C7.48542 6.74382 7.05518 7.45786 6.92641 8.25219C6.79764 9.04653 6.98025 9.85992 7.43622 10.523C7.89218 11.186 8.58636 11.6476 9.37417 11.8117V13.75C9.37417 13.9159 9.44006 14.0749 9.55735 14.1922C9.67464 14.3095 9.83371 14.3754 9.99958 14.3754C10.1655 14.3754 10.3245 14.3095 10.4418 14.1922C10.5591 14.0749 10.625 13.9159 10.625 13.75V11.8125C10.9467 11.7467 11.2625 11.6292 11.5625 11.4558C11.9182 11.251 12.23 10.978 12.48 10.6525C12.7301 10.327 12.9135 9.95535 13.0197 9.55886C13.1259 9.16237 13.1528 8.74883 13.099 8.34192C13.0451 7.935 12.9115 7.54271 12.7058 7.1875C12.4635 6.76742 12.1266 6.4096 11.7219 6.14242C11.3171 5.87525 10.8557 5.70608 10.3742 5.64833H10.3733Z" fill="white"/>
</g>
</g>
</svg>
