<svg width="28" height="29" viewBox="0 0 28 29" fill="none" xmlns="http://www.w3.org/2000/svg">
<g id="bxl:discord-alt">
<path id="Vector" d="M17.29 5.46997C17.0583 5.88494 16.8518 6.31349 16.6717 6.7533C14.9016 6.47336 13.0985 6.47336 11.3284 6.7533C11.1482 6.31349 10.9417 5.88494 10.71 5.46997C9.04261 5.75487 7.42166 6.2651 5.89169 6.98664C3.15579 10.935 1.91504 15.7284 2.39169 20.5083C4.17464 21.8486 6.17573 22.8709 8.30669 23.53C8.79192 22.889 9.22498 22.2102 9.60169 21.5C8.90645 21.2436 8.2382 20.9193 7.60669 20.5316C7.7799 20.4164 7.94374 20.2877 8.09669 20.1466C9.93823 21.0337 11.956 21.4943 14 21.4943C16.0441 21.4943 18.0618 21.0337 19.9034 20.1466C20.0667 20.2866 20.23 20.415 20.3934 20.5316C19.7584 20.9162 19.0908 21.2442 18.3984 21.5116C18.7594 22.2379 19.1809 22.9326 19.6584 23.5883C21.7867 22.9315 23.7843 21.909 25.5617 20.5666C26.0498 15.7859 24.808 10.9885 22.0617 7.04497C20.5489 6.3085 18.944 5.77875 17.29 5.46997ZM10.1267 17.7783C9.54287 17.7364 8.99799 17.4699 8.60643 17.0349C8.21487 16.5998 8.00709 16.03 8.02669 15.445C8.00413 14.8592 8.21089 14.2877 8.60304 13.852C8.99519 13.4163 9.5418 13.1507 10.1267 13.1116C10.7116 13.1507 11.2582 13.4163 11.6503 13.852C12.0425 14.2877 12.2493 14.8592 12.2267 15.445C12.2493 16.0307 12.0425 16.6022 11.6503 17.0379C11.2582 17.4736 10.7116 17.7393 10.1267 17.7783ZM17.8734 17.7783C17.2895 17.7364 16.7447 17.4699 16.3531 17.0349C15.9615 16.5998 15.7538 16.03 15.7734 15.445C15.7508 14.8592 15.9576 14.2877 16.3497 13.852C16.7419 13.4163 17.2885 13.1507 17.8734 13.1116C18.4593 13.1478 19.0077 13.4125 19.4005 13.8489C19.7932 14.2853 19.9989 14.8584 19.9734 15.445C19.9989 16.0315 19.7932 16.6046 19.4005 17.041C19.0077 17.4774 18.4593 17.7422 17.8734 17.7783Z" fill="black"/>
</g>
</svg>
