<svg width="554" height="483" viewBox="0 0 554 483" fill="none" xmlns="http://www.w3.org/2000/svg">
<path d="M144.147 455.261C142.727 455.261 142.727 457.443 144.147 457.443C145.566 457.443 145.566 455.261 144.147 455.261Z" fill="black"/>
<path d="M147.956 433.513C148.164 433.478 148.337 433.409 148.545 433.374C148.58 433.374 148.58 433.27 148.545 433.27C148.337 433.236 148.164 433.167 147.956 433.132C147.818 433.132 147.714 433.201 147.714 433.305C147.714 433.409 147.852 433.513 147.956 433.478V433.513Z" fill="black"/>
<path d="M147.298 436.941C146.848 436.941 146.848 437.669 147.298 437.669C147.748 437.669 147.748 436.941 147.298 436.941Z" fill="black"/>
<path d="M139.229 387.938C139.229 387.938 139.333 387.834 139.367 387.765C139.125 387.869 138.917 387.973 138.675 388.042C138.917 388.042 139.16 388.042 139.367 387.973C139.367 387.973 139.437 387.973 139.471 387.973C139.61 387.938 139.818 387.869 139.922 387.8C140.025 387.696 140.164 387.627 140.268 387.523C140.372 387.384 140.476 387.28 140.58 387.142C140.718 386.934 140.787 386.726 140.787 386.484C140.857 386.241 140.822 385.999 140.787 385.757C140.649 385.341 140.372 384.891 139.956 384.683C139.922 384.683 139.887 384.648 139.818 384.614C140.025 384.995 140.268 385.376 140.476 385.757C140.476 385.583 140.476 385.376 140.441 385.203C140.406 385.029 140.303 384.891 140.233 384.718C140.129 384.51 139.991 384.337 139.852 384.198C139.506 383.852 138.883 383.817 138.536 384.198C138.398 384.371 138.259 384.51 138.155 384.683C138.121 384.752 138.086 384.787 138.051 384.856C137.948 385.029 137.913 385.203 137.878 385.376C138.294 385.064 138.744 384.718 139.16 384.406C139.16 384.406 139.09 384.406 139.056 384.406C138.606 384.406 138.121 384.579 137.809 384.925C137.497 385.272 137.29 385.722 137.29 386.172C137.29 386.449 137.324 386.657 137.428 386.899C137.463 387.038 137.532 387.177 137.67 387.28C137.705 387.35 137.774 387.419 137.809 387.488C137.705 387.384 137.636 387.246 137.532 387.142C137.705 387.35 137.809 387.557 137.982 387.765C137.913 387.454 137.809 387.107 137.74 386.796C137.74 386.865 137.705 386.934 137.67 387.003C137.67 387.073 137.67 387.177 137.67 387.246C137.67 387.384 137.67 387.488 137.74 387.627C137.809 387.8 137.948 387.973 138.121 388.077C138.467 388.285 138.987 388.25 139.264 387.938H139.229Z" fill="black"/>
<path d="M189.445 337.792C189.445 337.792 189.618 337.689 189.688 337.619C189.722 337.619 189.757 337.55 189.791 337.515C189.861 337.481 189.93 337.412 189.93 337.308V337.238C189.93 337.238 189.93 337.204 189.93 337.169C189.93 337.065 189.861 337.031 189.791 336.961C189.757 336.961 189.722 336.892 189.688 336.892C189.618 336.823 189.514 336.754 189.445 336.719C189.341 336.65 189.237 336.65 189.133 336.65C189.03 336.65 188.926 336.65 188.822 336.719C188.614 336.823 188.51 337.031 188.51 337.273C188.51 337.515 188.614 337.689 188.822 337.827C188.926 337.896 189.03 337.896 189.133 337.896C189.237 337.896 189.341 337.896 189.445 337.827V337.792Z" fill="black"/>
<path d="M177.878 299.248C176.978 299.248 176.978 300.668 177.878 300.668C178.779 300.668 178.779 299.248 177.878 299.248Z" fill="black"/>
<path d="M142.9 214.644C143.108 214.644 143.281 214.644 143.489 214.644C143.593 214.644 143.731 214.609 143.8 214.505C143.87 214.436 143.939 214.298 143.939 214.194C143.939 213.951 143.731 213.744 143.489 213.744C143.281 213.744 143.108 213.744 142.9 213.744C142.796 213.744 142.658 213.778 142.588 213.882C142.519 213.986 142.45 214.09 142.45 214.194C142.45 214.298 142.484 214.436 142.588 214.505C142.692 214.575 142.796 214.644 142.9 214.644Z" fill="black"/>
<path d="M185.982 183.234C185.982 182.956 186.051 182.714 186.086 182.437C186.086 182.333 186.086 182.264 186.017 182.16C186.017 182.091 185.947 181.987 185.878 181.952C185.809 181.883 185.74 181.848 185.67 181.814C185.601 181.779 185.497 181.744 185.393 181.744C185.22 181.744 185.047 181.814 184.908 181.952C184.874 181.987 184.839 182.056 184.804 182.091C184.735 182.195 184.701 182.298 184.701 182.437C184.701 182.714 184.77 182.956 184.804 183.234C184.804 183.303 184.804 183.407 184.839 183.476C184.839 183.545 184.908 183.614 184.978 183.684C185.082 183.788 185.255 183.857 185.393 183.857C185.532 183.857 185.705 183.788 185.809 183.684C185.809 183.649 185.878 183.614 185.913 183.58C185.982 183.476 185.982 183.372 185.982 183.268V183.234Z" fill="black"/>
<path d="M169.151 106.075C169.151 106.075 168.978 106.352 169.151 106.352C169.324 106.352 169.324 106.075 169.151 106.075Z" fill="black"/>
<path d="M180.372 54.5786C179.298 54.5786 179.298 56.2409 180.372 56.2409C181.445 56.2409 181.445 54.5786 180.372 54.5786Z" fill="black"/>
<path d="M169.982 68.1194C169.982 68.1194 169.982 68.3619 169.947 68.5004C169.947 68.5004 169.947 68.5697 169.947 68.6043C169.947 68.6736 169.947 68.7774 169.947 68.8467C169.947 68.8467 169.947 68.8813 169.947 68.916C169.947 69.0545 170.051 69.1584 170.121 69.2276C170.224 69.2969 170.328 69.3315 170.467 69.3315C170.467 69.3315 170.501 69.3315 170.536 69.3315C170.605 69.3315 170.709 69.3315 170.779 69.2969C170.779 69.2969 170.848 69.2969 170.882 69.2969C171.021 69.2623 171.125 69.193 171.263 69.1584C171.333 69.1238 171.437 69.0891 171.506 69.0545C171.575 68.9852 171.644 68.9506 171.714 68.8813C171.783 68.8121 171.817 68.7428 171.887 68.6735C171.921 68.6043 171.956 68.5004 171.991 68.4311C171.991 68.3272 171.991 68.258 172.025 68.1541C172.025 68.0502 172.025 67.9809 171.991 67.877C171.956 67.8078 171.921 67.7039 171.887 67.6346C171.817 67.4961 171.748 67.4268 171.61 67.3576C171.54 67.2883 171.471 67.2537 171.367 67.219C171.298 67.1844 171.194 67.1498 171.09 67.1498C170.986 67.1498 170.917 67.1498 170.813 67.1498C170.709 67.1498 170.64 67.1498 170.536 67.219C170.432 67.219 170.363 67.2883 170.294 67.3576C170.224 67.3922 170.155 67.4615 170.121 67.5307C170.051 67.6 170.017 67.6692 169.982 67.7731C169.913 67.9117 169.878 68.0156 169.878 68.1887L169.982 68.1194Z" fill="black"/>
<path d="M268.44 122.352C267.471 122.352 267.471 123.841 268.44 123.841C269.41 123.841 269.41 122.352 268.44 122.352Z" fill="black"/>
<path d="M282.743 128.655C282.743 128.378 282.812 128.135 282.847 127.858C282.847 127.754 282.847 127.685 282.778 127.581C282.778 127.512 282.709 127.408 282.639 127.373C282.57 127.304 282.501 127.27 282.432 127.235C282.362 127.2 282.258 127.166 282.154 127.166C281.981 127.166 281.774 127.235 281.67 127.373C281.635 127.408 281.6 127.477 281.566 127.512C281.496 127.616 281.462 127.72 281.462 127.858C281.462 128.135 281.531 128.378 281.566 128.655C281.566 128.724 281.566 128.828 281.6 128.897C281.6 128.966 281.67 129.036 281.739 129.105C281.843 129.209 282.016 129.278 282.154 129.278C282.293 129.278 282.466 129.209 282.57 129.105C282.57 129.07 282.639 129.036 282.674 129.001C282.743 128.897 282.743 128.793 282.743 128.689V128.655Z" fill="black"/>
<path d="M241.566 93.0886C239.73 93.0886 239.73 95.9284 241.566 95.9284C243.401 95.9284 243.401 93.0886 241.566 93.0886Z" fill="black"/>
<path d="M265.912 51.4966C265.912 51.4966 265.739 51.7734 265.912 51.7734C266.085 51.7734 266.085 51.4966 265.912 51.4966Z" fill="black"/>
<path d="M277.167 0C276.094 0 276.094 1.66229 277.167 1.66229C278.241 1.66229 278.241 0 277.167 0Z" fill="black"/>
<path d="M266.743 13.5407C266.743 13.5407 266.743 13.7831 266.709 13.9217C266.709 13.9217 266.709 13.9909 266.709 14.0256C266.709 14.0948 266.709 14.1987 266.709 14.268C266.709 14.268 266.709 14.3026 266.709 14.3372C266.709 14.4758 266.813 14.5797 266.882 14.6489C266.986 14.7182 267.09 14.7528 267.228 14.7528C267.228 14.7528 267.263 14.7528 267.297 14.7528C267.367 14.7528 267.471 14.7528 267.54 14.7182C267.54 14.7182 267.609 14.7182 267.644 14.7182C267.782 14.6835 267.886 14.6143 268.025 14.5797C268.094 14.545 268.198 14.5104 268.267 14.4758C268.336 14.4065 268.406 14.3719 268.475 14.3026C268.544 14.2333 268.579 14.1641 268.648 14.0948C268.683 14.0256 268.717 13.9217 268.752 13.8524C268.752 13.7485 268.752 13.6792 268.787 13.5753C268.787 13.4715 268.787 13.4022 268.752 13.2983C268.717 13.229 268.683 13.1251 268.648 13.0559C268.579 12.952 268.51 12.8481 268.371 12.7788C268.302 12.7096 268.232 12.6749 268.129 12.6403C268.059 12.6057 267.955 12.571 267.852 12.571C267.748 12.571 267.678 12.571 267.574 12.571C267.471 12.571 267.401 12.571 267.297 12.6403C267.194 12.6403 267.124 12.7096 267.055 12.7788C266.986 12.8135 266.916 12.8827 266.882 12.952C266.813 13.0212 266.778 13.0905 266.743 13.1944C266.674 13.3329 266.639 13.4368 266.639 13.61L266.743 13.5407Z" fill="black"/>
<path d="M155.818 31.8261C155.818 31.8261 155.887 32.0685 155.921 32.1724C155.921 32.2417 155.956 32.2763 155.991 32.3456V32.4148C155.991 32.4841 156.025 32.5533 156.06 32.588C156.06 32.6226 156.129 32.6572 156.164 32.7265C156.199 32.7611 156.268 32.7958 156.302 32.8304C156.406 32.8997 156.51 32.8997 156.614 32.8997C156.718 32.8997 156.822 32.8997 156.926 32.8304C157.03 32.7611 157.099 32.6919 157.168 32.588C157.168 32.5187 157.237 32.4841 157.237 32.4148C157.237 32.4148 157.237 32.3456 157.237 32.3109C157.237 32.2417 157.272 32.207 157.307 32.1378C157.341 32.0339 157.376 31.8954 157.411 31.7915C157.515 31.5144 157.411 31.1681 157.203 30.9603C157.03 30.8218 156.822 30.7179 156.614 30.7179C156.51 30.7179 156.372 30.7179 156.268 30.7872C156.164 30.8218 156.06 30.8911 155.991 30.9603C155.783 31.1681 155.679 31.5144 155.783 31.7915L155.818 31.8261Z" fill="black"/>
<path d="M507.885 442.344C506.465 442.344 506.465 444.526 507.885 444.526C509.305 444.526 509.305 442.344 507.885 442.344Z" fill="black"/>
<path d="M511.694 420.596C511.902 420.561 512.075 420.492 512.283 420.457C512.318 420.457 512.318 420.353 512.283 420.353C512.075 420.319 511.902 420.249 511.694 420.215C511.556 420.215 511.452 420.284 511.452 420.388C511.452 420.492 511.59 420.596 511.694 420.561V420.596Z" fill="black"/>
<path d="M511.002 424.024C510.551 424.024 510.551 424.751 511.002 424.751C511.452 424.751 511.452 424.024 511.002 424.024Z" fill="black"/>
<path d="M502.932 375.056C502.932 375.056 503.036 374.952 503.071 374.882C502.829 374.986 502.621 375.09 502.378 375.159C502.621 375.159 502.863 375.159 503.071 375.09C503.071 375.09 503.14 375.09 503.175 375.09C503.313 375.056 503.521 374.986 503.625 374.917C503.729 374.813 503.867 374.744 503.971 374.64C504.075 374.501 504.179 374.398 504.283 374.259C504.422 374.051 504.491 373.843 504.491 373.601C504.56 373.359 504.526 373.116 504.491 372.874C504.352 372.458 504.075 372.008 503.66 371.8C503.625 371.8 503.59 371.766 503.521 371.731C503.729 372.112 503.971 372.493 504.179 372.874C504.179 372.701 504.179 372.527 504.145 372.32C504.11 372.147 504.006 372.008 503.937 371.835C503.833 371.627 503.694 371.454 503.556 371.315C503.209 370.969 502.586 370.934 502.24 371.315C502.101 371.489 501.963 371.627 501.859 371.8C501.824 371.869 501.79 371.904 501.755 371.973C501.651 372.147 501.616 372.32 501.582 372.493C501.997 372.181 502.448 371.835 502.863 371.523C502.863 371.523 502.794 371.523 502.759 371.523C502.309 371.523 501.824 371.696 501.513 372.043C501.201 372.389 500.993 372.839 500.993 373.289C500.993 373.566 501.028 373.774 501.132 374.017C501.166 374.155 501.235 374.294 501.374 374.398C501.409 374.467 501.478 374.536 501.513 374.605L501.235 374.259C501.409 374.467 501.513 374.675 501.686 374.882C501.616 374.571 501.513 374.224 501.443 373.913C501.443 373.982 501.409 374.051 501.374 374.12C501.374 374.19 501.374 374.294 501.374 374.363C501.374 374.501 501.374 374.605 501.443 374.744C501.513 374.917 501.651 375.09 501.824 375.194C502.171 375.402 502.69 375.367 502.967 375.056H502.932Z" fill="black"/>
<path d="M553.183 324.91C553.183 324.91 553.356 324.806 553.426 324.737C553.46 324.737 553.495 324.667 553.53 324.633C553.599 324.598 553.668 324.529 553.668 324.425V324.356C553.668 324.356 553.668 324.321 553.668 324.286C553.668 324.182 553.599 324.148 553.53 324.079C553.495 324.079 553.46 324.009 553.426 324.009C553.356 323.94 553.253 323.871 553.183 323.836C553.079 323.767 552.975 323.767 552.872 323.767C552.768 323.767 552.664 323.767 552.56 323.836C552.352 323.94 552.248 324.148 552.248 324.39C552.248 324.633 552.352 324.806 552.56 324.944C552.664 325.014 552.768 325.014 552.872 325.014C552.975 325.014 553.079 325.014 553.183 324.944V324.91Z" fill="black"/>
<path d="M541.616 286.33C540.716 286.33 540.716 287.75 541.616 287.75C542.517 287.75 542.517 286.33 541.616 286.33Z" fill="black"/>
<path d="M490.707 238.609H488.872C488.872 238.609 488.872 238.851 488.837 238.955V239.128C489.045 238.817 489.288 238.505 489.53 238.193C489.461 238.193 489.391 238.193 489.322 238.193C489.011 238.262 488.768 238.436 488.56 238.643C488.352 238.851 488.179 239.128 488.11 239.405C488.041 239.717 488.041 240.029 488.11 240.34C488.179 240.652 488.352 240.894 488.56 241.102C488.733 241.275 488.907 241.379 489.114 241.449C489.322 241.552 489.53 241.622 489.772 241.587C489.911 241.587 490.084 241.552 490.223 241.518C490.534 241.449 490.777 241.275 490.985 241.068C491.192 240.86 491.365 240.583 491.435 240.306C491.504 239.994 491.504 239.682 491.435 239.371C491.365 239.059 491.192 238.817 490.985 238.609C490.777 238.401 490.5 238.228 490.223 238.159C490.153 238.159 490.084 238.159 490.015 238.159C490.257 238.47 490.5 238.782 490.742 239.094C490.742 238.92 490.707 238.782 490.673 238.609C490.673 238.47 490.673 238.366 490.604 238.263C490.569 238.159 490.5 238.055 490.43 237.985C490.361 237.882 490.257 237.847 490.153 237.812C490.049 237.743 489.911 237.743 489.807 237.743C489.738 237.743 489.634 237.743 489.565 237.743C489.426 237.778 489.288 237.882 489.149 237.985C489.114 238.055 489.045 238.124 489.011 238.159C488.941 238.297 488.872 238.47 488.872 238.609C488.872 238.747 488.872 238.851 488.941 238.955C488.976 239.059 489.045 239.163 489.114 239.232C489.184 239.336 489.288 239.371 489.391 239.405C489.495 239.475 489.599 239.475 489.738 239.475C489.807 239.475 489.911 239.475 489.98 239.475C490.119 239.44 490.257 239.371 490.396 239.232C490.43 239.163 490.5 239.094 490.534 239.059C490.604 238.92 490.673 238.747 490.673 238.609H490.707Z" fill="black"/>
<path d="M506.638 201.761C506.846 201.761 507.019 201.761 507.227 201.761C507.331 201.761 507.469 201.727 507.538 201.623C507.608 201.553 507.677 201.415 507.677 201.311C507.677 201.069 507.469 200.861 507.227 200.861C507.019 200.861 506.846 200.861 506.638 200.861C506.534 200.861 506.396 200.93 506.326 200.999C506.257 201.069 506.188 201.207 506.188 201.311C506.188 201.415 506.222 201.553 506.326 201.623C506.43 201.692 506.534 201.761 506.638 201.761Z" fill="black"/>
<path d="M535.382 164.013C534.413 164.013 534.413 165.502 535.382 165.502C536.352 165.502 536.352 164.013 535.382 164.013Z" fill="black"/>
<path d="M549.72 170.316C549.72 170.039 549.789 169.797 549.824 169.52C549.824 169.416 549.824 169.346 549.755 169.242C549.755 169.173 549.685 169.069 549.616 169.035C549.547 168.965 549.478 168.931 549.408 168.896C549.339 168.862 549.235 168.827 549.131 168.827C548.958 168.827 548.75 168.896 548.647 169.035C548.612 169.069 548.577 169.139 548.543 169.173C548.473 169.277 548.439 169.381 548.439 169.52C548.439 169.797 548.508 170.039 548.543 170.316C548.543 170.385 548.543 170.489 548.577 170.558C548.577 170.628 548.646 170.697 548.716 170.766C548.82 170.87 548.993 170.939 549.131 170.939C549.27 170.939 549.443 170.87 549.547 170.766C549.547 170.732 549.616 170.697 549.651 170.662C549.72 170.558 549.72 170.455 549.72 170.351V170.316Z" fill="black"/>
<path d="M532.889 93.1924C532.889 93.1924 532.716 93.4692 532.889 93.4692C533.062 93.4692 533.062 93.1924 532.889 93.1924Z" fill="black"/>
<path d="M544.11 41.6613C543.036 41.6613 543.036 43.3235 544.11 43.3235C545.183 43.3235 545.183 41.6613 544.11 41.6613Z" fill="black"/>
<path d="M519.556 18.9086C519.556 18.9086 519.625 19.151 519.659 19.2549C519.659 19.3242 519.694 19.3588 519.729 19.4281V19.4973C519.729 19.5666 519.763 19.6359 519.798 19.6705C519.798 19.7051 519.867 19.7398 519.902 19.809C519.937 19.8437 520.006 19.8783 520.04 19.9129C520.144 19.9822 520.248 19.9822 520.352 19.9822C520.456 19.9822 520.56 19.9822 520.664 19.9129C520.768 19.8437 520.837 19.7744 520.906 19.6705C520.906 19.6012 520.976 19.5666 520.976 19.4973C520.976 19.4973 520.976 19.4281 520.976 19.3934C520.976 19.3242 521.01 19.2896 521.045 19.2203C521.079 19.1164 521.114 18.9779 521.149 18.874C521.253 18.5969 521.149 18.2506 520.941 18.0428C520.768 17.9043 520.56 17.8004 520.352 17.8004C520.248 17.8004 520.11 17.8004 520.006 17.8697C519.902 17.8697 519.798 17.9736 519.729 18.0428C519.521 18.2506 519.417 18.5969 519.521 18.874L519.556 18.9086Z" fill="black"/>
<path d="M81.7055 18.0774C80.6665 18.0774 80.6665 19.7051 81.7055 19.7051C82.7444 19.7051 82.7444 18.0774 81.7055 18.0774Z" fill="black"/>
<path d="M59.8528 36.4666C58.987 36.4666 58.987 37.7825 59.8528 37.7825C60.7186 37.7825 60.7186 36.4666 59.8528 36.4666Z" fill="black"/>
<path d="M3.05656 190.575C2.32929 190.575 2.32929 191.718 3.05656 191.718C3.78383 191.718 3.78383 190.575 3.05656 190.575Z" fill="black"/>
<path d="M31.524 247.128C31.524 247.128 31.6972 246.92 31.7664 246.816C31.8357 246.747 31.905 246.643 31.9396 246.574C31.9396 246.505 32.0089 246.47 32.0435 246.401C32.0435 246.366 32.0435 246.332 32.1128 246.262C32.1128 246.193 32.1128 246.124 32.1128 246.055C32.1128 245.951 32.0435 245.847 31.9742 245.743C32.0089 245.847 32.0781 245.951 32.1128 246.055C32.1128 246.02 32.1128 245.951 32.1128 245.916C32.1128 245.812 32.0781 245.708 31.9742 245.639C31.8703 245.57 31.8011 245.57 31.6625 245.57C31.6279 245.57 31.5586 245.57 31.524 245.57C31.6279 245.57 31.7664 245.57 31.8703 245.604C31.8357 245.604 31.8011 245.57 31.7318 245.535C31.6625 245.535 31.5933 245.535 31.524 245.535C31.4894 245.535 31.4201 245.535 31.3855 245.57C31.3162 245.57 31.2816 245.639 31.2123 245.674C31.1777 245.708 31.1084 245.777 31.0738 245.812C31.0045 245.881 30.9353 245.985 30.866 246.055C30.7967 246.158 30.7275 246.262 30.6236 246.366C30.589 246.435 30.5543 246.505 30.5543 246.574C30.5543 246.643 30.5543 246.712 30.5543 246.782C30.589 246.886 30.6582 246.99 30.7275 247.059C30.8314 247.128 30.9353 247.163 31.0392 247.163C31.1777 247.163 31.3162 247.128 31.4201 247.024L31.524 247.128Z" fill="black"/>
<path d="M76.0951 337.377C75.2293 337.377 75.2293 338.693 76.0951 338.693C76.9609 338.693 76.9609 337.377 76.0951 337.377Z" fill="black"/>
<path d="M70.7272 380.146C70.7272 380.146 70.7272 379.973 70.7272 379.869C70.7272 379.835 70.7272 379.765 70.7272 379.731C70.7272 379.558 70.7272 379.558 70.6926 379.454C70.6926 379.385 70.6233 379.281 70.5887 379.211C70.5195 379.073 70.4156 378.969 70.277 378.9C70.1385 378.83 70 378.796 69.8268 378.796C69.6883 378.796 69.5151 378.83 69.3766 378.9C69.2381 378.969 69.1342 379.073 69.0649 379.211C68.9957 379.281 68.9956 379.385 68.961 379.454C68.9264 379.558 68.961 379.592 68.9264 379.731C68.9264 379.765 68.9264 379.835 68.9264 379.869C68.9264 379.973 68.9264 380.043 68.9264 380.146C68.9264 380.25 68.9264 380.389 68.9957 380.493C69.0303 380.597 69.0995 380.7 69.1688 380.77C69.2381 380.839 69.342 380.908 69.4459 380.943C69.5498 381.012 69.6537 381.012 69.7922 381.012C69.8615 381.012 69.9307 381.012 70.0346 381.012C70.1731 380.978 70.3117 380.908 70.4156 380.804C70.4502 380.735 70.5195 380.701 70.5541 380.631C70.6234 380.493 70.658 380.354 70.658 380.181L70.7272 380.146Z" fill="black"/>
<path d="M67.16 471.33C67.16 471.33 67.5063 471.399 67.6795 471.434C67.6102 471.434 67.5409 471.365 67.4717 471.365C67.4024 471.33 67.3678 471.261 67.2985 471.226C67.3678 471.296 67.4717 471.365 67.5756 471.399C67.6795 471.469 67.7834 471.469 67.8873 471.469C67.9565 471.469 68.0258 471.469 68.1297 471.469C68.2682 471.434 68.4067 471.365 68.5106 471.261C68.6145 471.157 68.6491 471.088 68.6838 470.984C68.7184 470.88 68.753 470.811 68.753 470.672C68.753 470.638 68.753 470.499 68.753 470.464C68.753 470.361 68.6838 470.257 68.6145 470.187C68.6145 470.153 68.5799 470.118 68.5453 470.084C68.476 470.014 68.3721 469.945 68.2682 469.91C68.1643 469.841 68.0604 469.841 67.9565 469.841C67.8873 469.841 67.818 469.841 67.7141 469.841C67.5756 469.876 67.437 469.945 67.3331 470.049C67.4024 470.014 67.437 469.945 67.5063 469.91C67.5756 469.91 67.6448 469.841 67.7141 469.841C67.5409 469.841 67.3678 469.91 67.1946 469.945C67.1253 469.945 67.0907 469.98 67.0215 470.014C66.9522 470.049 66.8829 470.118 66.8137 470.187C66.779 470.222 66.7444 470.291 66.7098 470.361C66.6751 470.464 66.6405 470.534 66.6405 470.638C66.6405 470.707 66.6405 470.776 66.6405 470.845C66.6405 470.915 66.6751 470.949 66.7098 471.019C66.7444 471.088 66.8137 471.157 66.8829 471.226C66.9522 471.296 67.0215 471.33 67.1253 471.365L67.16 471.33Z" fill="black"/>
<path d="M57.2901 447.366C57.2901 447.366 57.394 447.262 57.4632 447.192C57.5671 447.123 57.671 446.95 57.671 446.811C57.671 446.569 57.4632 446.43 57.2901 446.292C57.1862 446.188 57.0823 446.153 56.9438 446.084C56.8399 446.084 56.736 446.049 56.6321 446.084C56.5628 446.084 56.4935 446.084 56.4589 446.119C56.3896 446.119 56.355 446.153 56.2857 446.223C56.2165 446.223 56.1818 446.292 56.1472 446.361C56.1126 446.396 56.078 446.465 56.0433 446.534C56.0087 446.638 55.9741 446.708 55.9741 446.811C55.9741 446.881 55.9741 446.95 55.9741 447.019C55.9741 447.088 56.0087 447.123 56.0433 447.192C56.078 447.227 56.1126 447.296 56.1472 447.331C56.1818 447.365 56.2511 447.4 56.2857 447.435C56.355 447.435 56.3896 447.469 56.4589 447.504C56.5628 447.504 56.6667 447.539 56.7706 447.504C56.8399 447.504 56.9091 447.504 56.9438 447.469C57.0476 447.469 57.1169 447.4 57.1862 447.296L57.2901 447.366Z" fill="black"/>
<path d="M0.528485 328.269C0.528485 328.269 0.770909 328.269 0.874805 328.269C0.944068 328.269 0.978697 328.269 1.04796 328.269C1.08259 328.269 1.15186 328.269 1.18649 328.269C1.18649 328.269 1.22112 328.269 1.25575 328.269C1.32502 328.269 1.35965 328.2 1.42891 328.165C1.42891 328.165 1.42891 328.165 1.46355 328.13C1.63671 327.957 1.63671 327.715 1.46355 327.542C1.46355 327.542 1.46355 327.542 1.42891 327.507C1.32502 327.403 1.18649 327.368 1.04796 327.334C0.978697 327.334 0.944068 327.334 0.874805 327.334C0.770909 327.334 0.63238 327.334 0.528485 327.334C0.389958 327.334 0.251431 327.403 0.147536 327.472C0.0436405 327.542 -0.0256231 327.715 0.00900878 327.853C0.00900878 327.992 0.0436405 328.13 0.147536 328.234C0.251431 328.338 0.389958 328.407 0.528485 328.373V328.269Z" fill="black"/>
<path d="M13.0306 462.88C12.234 462.88 12.234 464.127 13.0306 464.127C13.8271 464.127 13.8271 462.88 13.0306 462.88Z" fill="black"/>
<path d="M219.09 48.2065C218.016 48.2065 218.016 49.9035 219.09 49.9035C220.164 49.9035 220.164 48.2065 219.09 48.2065Z" fill="black"/>
<path d="M6.79686 241.552C6.79686 241.345 6.86612 241.102 6.90076 240.894C6.76223 241.102 6.65833 241.31 6.5198 241.518C6.41591 241.587 6.31201 241.656 6.24275 241.726C6.41591 241.622 6.55444 241.518 6.65833 241.345C6.79686 241.206 6.86612 241.033 6.93539 240.825C7.00465 240.548 7.00465 240.306 6.93539 240.029C6.90076 239.821 6.79686 239.648 6.65833 239.509C6.55444 239.336 6.41591 239.232 6.24275 239.128C6.00033 238.99 5.75791 238.92 5.48085 238.92C5.2038 238.92 4.96137 238.99 4.71895 239.128C4.61505 239.197 4.51116 239.301 4.40726 239.371C4.2341 239.544 4.09558 239.786 4.02631 240.029C3.95705 240.306 3.95705 240.548 4.02631 240.825C4.06094 240.929 4.13021 241.068 4.16484 241.171C4.30337 241.379 4.47653 241.587 4.71895 241.726C4.61505 241.656 4.51116 241.587 4.44189 241.518C4.30337 241.31 4.19947 241.102 4.06095 240.894C4.06095 241.102 4.13021 241.345 4.16484 241.552C4.19947 241.656 4.26874 241.76 4.30337 241.864C4.37263 242.003 4.51116 242.141 4.64968 242.245C4.71895 242.314 4.82285 242.384 4.92674 242.418C5.0999 242.487 5.23843 242.522 5.44622 242.522C5.55011 242.522 5.68864 242.522 5.79254 242.487C5.89643 242.453 6.00033 242.384 6.10422 242.349C6.24275 242.28 6.38128 242.141 6.48517 242.003C6.58907 241.864 6.69296 241.726 6.7276 241.552H6.79686Z" fill="black"/>
<path d="M405.652 455.261C404.232 455.261 404.232 457.443 405.652 457.443C407.072 457.443 407.072 455.261 405.652 455.261Z" fill="black"/>
<path d="M409.427 433.513C409.634 433.478 409.807 433.409 410.015 433.374C410.05 433.374 410.05 433.27 410.015 433.27C409.807 433.236 409.634 433.167 409.427 433.132C409.288 433.132 409.184 433.201 409.184 433.305C409.184 433.409 409.323 433.513 409.427 433.478V433.513Z" fill="black"/>
<path d="M408.769 436.941C408.318 436.941 408.318 437.669 408.769 437.669C409.219 437.669 409.219 436.941 408.769 436.941Z" fill="black"/>
<path d="M450.915 337.792C450.915 337.792 451.089 337.689 451.158 337.619C451.192 337.619 451.227 337.55 451.262 337.515C451.331 337.481 451.4 337.412 451.4 337.308V337.238C451.4 337.238 451.4 337.204 451.4 337.169C451.4 337.065 451.331 337.031 451.262 336.961C451.227 336.961 451.192 336.892 451.158 336.892C451.089 336.823 450.985 336.754 450.915 336.719C450.812 336.65 450.708 336.65 450.604 336.65C450.5 336.65 450.396 336.65 450.292 336.719C450.084 336.823 449.98 337.031 449.98 337.273C449.98 337.515 450.084 337.689 450.292 337.827C450.396 337.896 450.5 337.896 450.604 337.896C450.708 337.896 450.812 337.896 450.915 337.827V337.792Z" fill="black"/>
<path d="M439.348 299.248C438.448 299.248 438.448 300.668 439.348 300.668C440.249 300.668 440.249 299.248 439.348 299.248Z" fill="black"/>
<path d="M388.44 251.526H386.604C386.604 251.526 386.604 251.769 386.569 251.873C386.569 251.942 386.569 251.976 386.569 252.046C386.812 251.734 387.054 251.422 387.297 251.111C387.227 251.111 387.158 251.111 387.089 251.111C386.777 251.18 386.535 251.353 386.327 251.561C386.119 251.769 385.946 252.046 385.877 252.323C385.808 252.634 385.808 252.946 385.877 253.258C385.946 253.569 386.119 253.812 386.327 254.02C386.5 254.193 386.673 254.297 386.881 254.366C387.089 254.47 387.297 254.539 387.539 254.504C387.678 254.504 387.851 254.47 387.989 254.435C388.301 254.366 388.543 254.193 388.751 253.985C388.959 253.777 389.132 253.5 389.202 253.223C389.271 252.911 389.271 252.6 389.202 252.288C389.132 251.976 388.959 251.734 388.751 251.526C388.543 251.318 388.266 251.145 387.989 251.076C387.92 251.076 387.851 251.076 387.782 251.076C388.024 251.388 388.266 251.699 388.509 252.011C388.509 251.838 388.474 251.699 388.44 251.526C388.44 251.388 388.44 251.284 388.37 251.18C388.336 251.076 388.266 250.972 388.197 250.903C388.128 250.799 388.024 250.764 387.92 250.73C387.816 250.66 387.678 250.66 387.574 250.66C387.505 250.66 387.401 250.66 387.331 250.66C387.193 250.695 387.054 250.764 386.916 250.903C386.881 250.972 386.812 251.041 386.777 251.076C386.708 251.215 386.639 251.388 386.639 251.526C386.639 251.665 386.639 251.769 386.708 251.873C386.743 251.976 386.812 252.08 386.881 252.15C386.95 252.253 387.054 252.288 387.158 252.323C387.262 252.392 387.366 252.392 387.505 252.392C387.574 252.392 387.678 252.392 387.747 252.392C387.885 252.357 388.024 252.288 388.163 252.15C388.197 252.08 388.266 252.011 388.301 251.976C388.37 251.838 388.44 251.665 388.44 251.526Z" fill="black"/>
<path d="M404.405 214.644C404.613 214.644 404.786 214.644 404.994 214.644C405.098 214.644 405.236 214.609 405.305 214.505C405.375 214.436 405.444 214.298 405.444 214.194C405.444 213.951 405.236 213.744 404.994 213.744C404.786 213.744 404.613 213.744 404.405 213.744C404.301 213.744 404.162 213.778 404.093 213.882C404.024 213.986 403.955 214.09 403.955 214.194C403.955 214.298 403.989 214.436 404.093 214.505C404.197 214.575 404.301 214.644 404.405 214.644Z" fill="black"/>
<path d="M447.452 183.234C447.452 182.956 447.521 182.714 447.556 182.437C447.556 182.333 447.556 182.264 447.487 182.16C447.487 182.091 447.418 181.987 447.348 181.952C447.279 181.883 447.21 181.848 447.141 181.814C447.071 181.779 446.967 181.744 446.863 181.744C446.69 181.744 446.483 181.814 446.379 181.952C446.344 181.987 446.309 182.056 446.275 182.091C446.205 182.195 446.171 182.298 446.171 182.437C446.171 182.714 446.24 182.956 446.275 183.234C446.275 183.303 446.275 183.407 446.309 183.476C446.309 183.545 446.379 183.614 446.448 183.684C446.552 183.788 446.725 183.857 446.863 183.857C447.002 183.857 447.175 183.788 447.279 183.684C447.279 183.649 447.348 183.614 447.383 183.58C447.452 183.476 447.452 183.372 447.452 183.268V183.234Z" fill="black"/>
<path d="M406.275 147.667C404.44 147.667 404.44 150.507 406.275 150.507C408.11 150.507 408.11 147.667 406.275 147.667Z" fill="black"/>
<path d="M430.621 106.075C430.621 106.075 430.448 106.352 430.621 106.352C430.794 106.352 430.794 106.075 430.621 106.075Z" fill="black"/>
<path d="M441.877 54.5786C440.803 54.5786 440.803 56.2409 441.877 56.2409C442.95 56.2409 442.95 54.5786 441.877 54.5786Z" fill="black"/>
<path d="M431.452 68.1194C431.452 68.1194 431.452 68.3619 431.418 68.5004C431.418 68.5004 431.418 68.5697 431.418 68.6043C431.418 68.6736 431.418 68.7774 431.418 68.8467C431.418 68.8467 431.418 68.8813 431.418 68.916C431.418 69.0545 431.522 69.1584 431.591 69.2276C431.695 69.2969 431.799 69.3315 431.937 69.3315C431.937 69.3315 431.972 69.3315 432.006 69.3315C432.076 69.3315 432.18 69.3315 432.249 69.2969C432.249 69.2969 432.318 69.2969 432.353 69.2969C432.491 69.2623 432.595 69.193 432.734 69.1584C432.803 69.1238 432.907 69.0891 432.976 69.0545C433.045 68.9852 433.115 68.9506 433.184 68.8813C433.253 68.8121 433.288 68.7428 433.357 68.6735C433.392 68.6043 433.426 68.5004 433.461 68.4311C433.461 68.3272 433.461 68.258 433.496 68.1541C433.496 68.0502 433.496 67.9809 433.461 67.877C433.426 67.8078 433.392 67.7039 433.357 67.6346C433.288 67.4961 433.219 67.4268 433.08 67.3576C433.011 67.2883 432.942 67.2537 432.838 67.219C432.768 67.1844 432.664 67.1498 432.561 67.1498C432.457 67.1498 432.387 67.1498 432.284 67.1498C432.18 67.1498 432.11 67.1498 432.006 67.219C431.903 67.219 431.833 67.2883 431.764 67.3576C431.695 67.3922 431.626 67.4615 431.591 67.5307C431.522 67.6 431.487 67.6692 431.452 67.7731C431.383 67.9117 431.348 68.0156 431.348 68.1887L431.452 68.1194Z" fill="black"/>
<path d="M417.323 31.8261C417.323 31.8261 417.392 32.0685 417.427 32.1724C417.427 32.2417 417.461 32.2763 417.496 32.3456V32.4148C417.496 32.4841 417.53 32.5533 417.565 32.588C417.565 32.6226 417.634 32.6572 417.669 32.7265C417.704 32.7611 417.773 32.7958 417.807 32.8304C417.911 32.8997 418.015 32.8997 418.119 32.8997C418.223 32.8997 418.327 32.8997 418.431 32.8304C418.535 32.7611 418.604 32.6919 418.673 32.588C418.673 32.5187 418.742 32.4841 418.742 32.4148C418.742 32.4148 418.742 32.3456 418.742 32.3109C418.742 32.2417 418.777 32.207 418.812 32.1378C418.846 32.0339 418.881 31.8954 418.916 31.7915C419.02 31.5144 418.916 31.1681 418.708 30.9603C418.535 30.8218 418.327 30.7179 418.119 30.7179C418.015 30.7179 417.877 30.7179 417.773 30.7872C417.669 30.8218 417.565 30.8911 417.496 30.9603C417.288 31.1681 417.184 31.5144 417.288 31.7915L417.323 31.8261Z" fill="black"/>
<path d="M343.21 18.0774C342.172 18.0774 342.172 19.7051 343.21 19.7051C344.249 19.7051 344.249 18.0774 343.21 18.0774Z" fill="black"/>
<path d="M321.358 36.4666C320.492 36.4666 320.492 37.7825 321.358 37.7825C322.224 37.7825 322.224 36.4666 321.358 36.4666Z" fill="black"/>
<path d="M264.527 190.575C263.8 190.575 263.8 191.718 264.527 191.718C265.254 191.718 265.289 190.575 264.527 190.575Z" fill="black"/>
<path d="M292.994 247.128C292.994 247.128 293.168 246.92 293.237 246.816C293.306 246.747 293.375 246.643 293.41 246.574C293.41 246.505 293.479 246.47 293.514 246.401C293.514 246.366 293.548 246.332 293.583 246.262C293.583 246.193 293.583 246.124 293.583 246.055C293.583 245.951 293.514 245.847 293.445 245.743C293.479 245.847 293.548 245.951 293.583 246.055C293.583 246.02 293.583 245.951 293.583 245.916C293.583 245.812 293.548 245.708 293.445 245.639C293.341 245.57 293.271 245.57 293.133 245.57C293.098 245.57 293.029 245.57 292.994 245.57C293.098 245.57 293.237 245.57 293.341 245.604L293.202 245.535C293.202 245.535 293.064 245.535 292.994 245.535C292.96 245.535 292.89 245.535 292.856 245.57C292.787 245.57 292.752 245.639 292.683 245.674C292.648 245.708 292.579 245.777 292.544 245.812C292.475 245.881 292.406 245.985 292.336 246.055C292.267 246.158 292.198 246.262 292.094 246.366C292.059 246.435 292.025 246.505 292.025 246.574C292.025 246.643 292.025 246.712 292.025 246.782C292.059 246.886 292.129 246.99 292.198 247.059C292.302 247.128 292.406 247.163 292.51 247.163C292.648 247.163 292.787 247.128 292.89 247.024L292.994 247.128Z" fill="black"/>
<path d="M337.565 337.377C336.7 337.377 336.7 338.693 337.565 338.693C338.431 338.693 338.431 337.377 337.565 337.377Z" fill="black"/>
<path d="M332.198 380.146C332.198 380.146 332.198 379.973 332.198 379.869C332.198 379.835 332.198 379.765 332.198 379.731C332.198 379.558 332.198 379.558 332.163 379.454C332.163 379.385 332.094 379.281 332.059 379.211C331.99 379.073 331.886 378.969 331.747 378.9C331.609 378.83 331.47 378.796 331.297 378.796C331.159 378.796 330.985 378.83 330.847 378.9C330.708 378.969 330.605 379.073 330.535 379.211C330.466 379.281 330.466 379.385 330.431 379.454C330.397 379.558 330.431 379.592 330.397 379.731C330.397 379.765 330.397 379.835 330.397 379.869C330.397 379.973 330.397 380.043 330.397 380.146C330.397 380.25 330.397 380.389 330.466 380.493C330.501 380.597 330.57 380.7 330.639 380.77C330.708 380.839 330.812 380.908 330.916 380.943C331.02 381.012 331.124 381.012 331.263 381.012C331.332 381.012 331.401 381.012 331.505 381.012C331.643 380.978 331.782 380.908 331.886 380.804C331.921 380.735 331.99 380.701 332.024 380.631C332.094 380.493 332.128 380.354 332.128 380.181L332.198 380.146Z" fill="black"/>
<path d="M328.63 471.33C328.63 471.33 328.977 471.399 329.15 471.434C329.081 471.434 329.011 471.365 328.942 471.365C328.873 471.33 328.838 471.261 328.769 471.226C328.838 471.296 328.942 471.365 329.046 471.399C329.15 471.469 329.254 471.469 329.358 471.469C329.427 471.469 329.496 471.469 329.6 471.469C329.739 471.434 329.877 471.365 329.981 471.261C330.085 471.157 330.12 471.088 330.154 470.984C330.189 470.88 330.224 470.811 330.224 470.672C330.224 470.638 330.224 470.499 330.224 470.464C330.224 470.361 330.154 470.257 330.085 470.187C330.085 470.153 330.05 470.118 330.016 470.084C329.946 470.014 329.843 469.945 329.739 469.91C329.635 469.841 329.531 469.841 329.427 469.841C329.358 469.841 329.288 469.841 329.185 469.841C329.046 469.876 328.908 469.945 328.804 470.049C328.873 470.014 328.907 469.945 328.977 469.91C329.046 469.91 329.115 469.841 329.185 469.841C329.011 469.841 328.838 469.91 328.665 469.945C328.596 469.945 328.561 469.98 328.492 470.014C328.423 470.049 328.353 470.118 328.284 470.187C328.249 470.222 328.215 470.291 328.18 470.361C328.146 470.464 328.111 470.534 328.111 470.638C328.111 470.707 328.111 470.776 328.111 470.845C328.111 470.915 328.146 470.949 328.18 471.019C328.215 471.088 328.284 471.157 328.353 471.226C328.423 471.296 328.492 471.33 328.596 471.365L328.63 471.33Z" fill="black"/>
<path d="M301.583 407.644C301.583 407.644 301.687 407.54 301.756 407.47C301.86 407.401 301.964 407.228 301.964 407.089C301.964 406.847 301.756 406.708 301.583 406.57C301.479 406.466 301.375 406.431 301.237 406.362C301.133 406.362 301.029 406.328 300.925 406.362C300.856 406.362 300.786 406.362 300.752 406.397C300.683 406.397 300.648 406.431 300.579 406.501C300.509 406.501 300.475 406.57 300.44 406.639C300.405 406.674 300.371 406.743 300.336 406.812C300.302 406.916 300.267 406.986 300.267 407.089C300.267 407.159 300.267 407.228 300.267 407.297C300.267 407.366 300.302 407.401 300.336 407.47C300.371 407.505 300.405 407.574 300.44 407.609C300.475 407.644 300.544 407.678 300.579 407.713L300.752 407.782C300.752 407.782 300.96 407.817 301.063 407.782C301.133 407.782 301.202 407.782 301.237 407.747C301.341 407.747 301.41 407.678 301.479 407.609L301.583 407.644Z" fill="black"/>
<path d="M262.033 328.269C262.033 328.269 262.276 328.269 262.38 328.269C262.449 328.269 262.484 328.269 262.553 328.269C262.587 328.269 262.657 328.269 262.691 328.269C262.691 328.269 262.726 328.269 262.761 328.269C262.83 328.269 262.865 328.2 262.934 328.165C262.934 328.165 262.934 328.165 262.968 328.13C263.142 327.957 263.142 327.715 262.968 327.542C262.968 327.542 262.968 327.542 262.934 327.507C262.83 327.403 262.691 327.368 262.553 327.334C262.484 327.334 262.449 327.334 262.38 327.334C262.276 327.334 262.137 327.334 262.033 327.334C261.895 327.334 261.756 327.403 261.652 327.472C261.549 327.542 261.479 327.715 261.514 327.853C261.514 327.992 261.549 328.13 261.652 328.234C261.756 328.338 261.895 328.407 262.033 328.373V328.269Z" fill="black"/>
<path d="M262.795 481.72C261.999 481.72 261.999 482.966 262.795 482.966C263.592 482.966 263.592 481.72 262.795 481.72Z" fill="black"/>
<path d="M480.56 48.2065C479.487 48.2065 479.487 49.9035 480.56 49.9035C481.634 49.9035 481.634 48.2065 480.56 48.2065Z" fill="black"/>
</svg>
