<svg width="598" height="328" viewBox="0 0 598 328" fill="none" xmlns="http://www.w3.org/2000/svg">
<path d="M28.584 42.104L28.584 44.44L27.544 44.44L27.544 41L39 41L39 42.104L28.584 42.104ZM39 26.9627L39 33.8267L27.544 33.8267L27.544 26.9787L28.6 26.9787L28.6 32.6747L32.728 32.6747L32.728 27.5067L33.768 27.5067L33.768 32.6747L37.944 32.6747L37.944 26.9627L39 26.9627ZM28.6 25.8236L27.544 25.8236L27.544 17.6156L28.6 17.6156L28.6 21.1516L39 21.1516L39 22.3036L28.6 22.3036L28.6 25.8236ZM39 14.8779L39 16.0299L27.544 16.0299L27.544 14.8779L32.648 14.8779L32.648 8.68587L27.544 8.68587L27.544 7.54987L39 7.54987L39 8.68587L33.72 8.68587L33.72 14.8779L39 14.8779Z" fill="black"/>
<path d="M551.048 318.856H550.136V318.056L553.672 314.568H548.184V313.544H555.128V314.472L551.704 317.88C553.848 317.992 555.384 319.352 555.384 321.432C555.384 323.704 553.72 325.192 551.4 325.192C549.144 325.192 547.624 323.8 547.624 321.512H548.76C548.76 323.16 549.784 324.152 551.4 324.152C553.112 324.152 554.216 323.064 554.216 321.4C554.216 319.832 553.096 318.856 551.048 318.856ZM564.579 320.216L560.691 313.544H561.987L564.819 318.488C564.947 318.728 565.043 318.92 565.155 319.176C565.299 318.888 565.299 318.888 565.507 318.488L568.307 313.544H569.571L565.731 320.216V325H564.579V320.216ZM572.634 325.192C570.362 325.192 568.842 323.56 568.842 321.128C568.842 318.712 570.346 317.048 572.554 317.048C574.65 317.048 576.074 318.536 576.074 320.728V321.272H569.914C569.994 323.16 570.986 324.248 572.65 324.248C573.914 324.248 574.73 323.704 575.018 322.68H576.074C575.658 324.312 574.458 325.192 572.634 325.192ZM572.554 317.992C571.098 317.992 570.138 318.952 569.946 320.472H574.97C574.97 318.984 574.01 317.992 572.554 317.992ZM579.985 325.192C578.337 325.192 577.361 324.264 577.361 322.904C577.361 321.48 578.449 320.584 580.257 320.44L582.817 320.232V319.976C582.817 318.456 581.905 317.976 580.769 317.976C579.425 317.976 578.625 318.584 578.625 319.624H577.617C577.617 318.056 578.897 317.048 580.801 317.048C582.593 317.048 583.905 317.944 583.905 319.992V325H582.977L582.833 323.64C582.353 324.616 581.297 325.192 579.985 325.192ZM580.241 324.296C581.873 324.296 582.817 323.16 582.817 321.48V321.064L580.529 321.24C579.073 321.368 578.481 322.008 578.481 322.872C578.481 323.816 579.185 324.296 580.241 324.296ZM590.169 317.16V318.152H589.561C588.137 318.152 587.225 319.112 587.225 320.584V325H586.121V317.256H587.161L587.241 318.456C587.545 317.624 588.361 317.08 589.449 317.08C589.689 317.08 589.897 317.096 590.169 317.16ZM590.98 322.824H592.036C592.036 323.72 592.708 324.28 593.796 324.28C594.996 324.28 595.7 323.768 595.7 322.936C595.7 322.296 595.38 321.928 594.468 321.704L593.14 321.368C591.796 321.032 591.14 320.328 591.14 319.272C591.14 317.912 592.276 317.048 593.94 317.048C595.572 317.048 596.628 317.944 596.676 319.384H595.604C595.572 318.488 594.948 317.96 593.908 317.96C592.82 317.96 592.212 318.424 592.212 319.256C592.212 319.848 592.628 320.264 593.476 320.472L594.804 320.808C596.148 321.144 596.756 321.768 596.756 322.888C596.756 324.28 595.572 325.192 593.812 325.192C592.068 325.192 590.98 324.264 590.98 322.824Z" fill="black"/>
<path d="M0.88 289.272C0.88 285.72 2.624 283.32 5.472 283.32C8.304 283.32 10.048 285.72 10.048 289.272C10.048 292.84 8.336 295.208 5.472 295.208C2.592 295.208 0.88 292.84 0.88 289.272ZM2.016 289.272C2.016 292.248 3.28 294.168 5.472 294.168C7.664 294.168 8.928 292.248 8.928 289.272C8.928 286.28 7.664 284.376 5.472 284.376C3.28 284.376 2.016 286.28 2.016 289.272ZM23.6154 295H16.7514L16.7514 283.544H23.5994V284.6H17.9034V288.728H23.0714V289.768H17.9034L17.9034 293.944H23.6154V295ZM24.7545 284.6V283.544H32.9625V284.6H29.4265L29.4265 295H28.2745L28.2745 284.6H24.7545ZM35.7003 295H34.5483V283.544H35.7003V288.648H41.8923V283.544H43.0283V295H41.8923V289.72H35.7003V295Z" fill="black"/>
<path d="M53.192 311.6V310.544H61.4V311.6H57.864V322H56.712V311.6H53.192ZM61.0143 318.128C61.0143 315.76 62.6783 314.048 64.9503 314.048C67.2223 314.048 68.8863 315.76 68.8863 318.128C68.8863 320.48 67.2223 322.192 64.9503 322.192C62.6783 322.192 61.0143 320.48 61.0143 318.128ZM62.1343 318.112C62.1343 319.936 63.2863 321.2 64.9503 321.2C66.5983 321.2 67.7663 319.936 67.7663 318.112C67.7663 316.32 66.5983 315.04 64.9503 315.04C63.2863 315.04 62.1343 316.32 62.1343 318.112ZM73.692 322.192C71.436 322.192 70.108 320.464 70.108 318.144C70.108 315.808 71.436 314.048 73.74 314.048C75.02 314.048 76.044 314.608 76.588 315.728V310.336H77.692V322H76.732L76.62 320.416C76.076 321.616 74.988 322.192 73.692 322.192ZM73.884 321.184C75.58 321.184 76.572 319.904 76.572 318.112C76.572 316.336 75.58 315.04 73.884 315.04C72.204 315.04 71.228 316.336 71.228 318.112C71.228 319.904 72.204 321.184 73.884 321.184ZM82.2198 322.192C80.5718 322.192 79.5958 321.264 79.5958 319.904C79.5958 318.48 80.6838 317.584 82.4918 317.44L85.0518 317.232V316.976C85.0518 315.456 84.1398 314.976 83.0038 314.976C81.6598 314.976 80.8598 315.584 80.8598 316.624H79.8518C79.8518 315.056 81.1318 314.048 83.0358 314.048C84.8278 314.048 86.1398 314.944 86.1398 316.992V322H85.2118L85.0678 320.64C84.5878 321.616 83.5318 322.192 82.2198 322.192ZM82.4758 321.296C84.1078 321.296 85.0518 320.16 85.0518 318.48V318.064L82.7638 318.24C81.3078 318.368 80.7158 319.008 80.7158 319.872C80.7158 320.816 81.4198 321.296 82.4758 321.296ZM87.3993 325.376V324.464H88.2473C88.9193 324.464 89.5913 324.416 89.9753 323.376L90.3113 322.464L87.1753 314.256H88.3433L90.8393 321.008L93.2873 314.256H94.4233L90.8713 323.776C90.4233 324.992 89.6713 325.488 88.5673 325.488C88.1033 325.488 87.7513 325.456 87.3993 325.376Z" fill="black"/>
<path d="M53 298C53 298 262.5 190.5 597 10" stroke="#0A2488" stroke-width="2" stroke-linecap="round"/>
<path d="M52.5 296.5C52.5 296.5 262.5 184.5 597 4" stroke="#3B9DF8" stroke-width="2" stroke-linecap="round"/>
<path d="M52 298C52 298.552 52.4477 299 53 299C53.5523 299 54 298.552 54 298L52 298ZM53.7071 0.292908C53.3166 -0.0976257 52.6834 -0.0976257 52.2929 0.292908L45.9289 6.65686C45.5384 7.04739 45.5384 7.68054 45.9289 8.07108C46.3195 8.46158 46.9526 8.46158 47.3432 8.07108L53 2.41422L58.6569 8.07108C59.0474 8.46158 59.6806 8.46158 60.0711 8.07108C60.4616 7.68054 60.4616 7.04739 60.0711 6.65686L53.7071 0.292908ZM54 298L54 1L52 1L52 298L54 298Z" fill="#D6D6D6"/>
<path d="M53 298C52.4477 298 52 298.448 52 299C52 299.552 52.4477 300 53 300V298ZM597.707 299.707C598.098 299.317 598.098 298.683 597.707 298.293L591.343 291.929C590.953 291.538 590.319 291.538 589.929 291.929C589.538 292.319 589.538 292.953 589.929 293.343L595.586 299L589.929 304.657C589.538 305.047 589.538 305.681 589.929 306.071C590.319 306.462 590.953 306.462 591.343 306.071L597.707 299.707ZM53 300L597 300V298L53 298V300Z" fill="#D6D6D6"/>
<path d="M116.064 37.176C112.864 37.176 110.688 34.792 110.688 31.272C110.688 27.752 112.896 25.352 116.128 25.352C118.592 25.352 120.528 26.84 120.992 29.112H119.76C119.28 27.464 117.872 26.456 116.08 26.456C113.568 26.456 111.888 28.376 111.888 31.272C111.888 34.152 113.568 36.072 116.08 36.072C117.888 36.072 119.328 35.096 119.824 33.56H121.056C120.528 35.72 118.528 37.176 116.064 37.176ZM122.264 33.128C122.264 30.76 123.928 29.048 126.2 29.048C128.472 29.048 130.136 30.76 130.136 33.128C130.136 35.48 128.472 37.192 126.2 37.192C123.928 37.192 122.264 35.48 122.264 33.128ZM123.384 33.112C123.384 34.936 124.536 36.2 126.2 36.2C127.848 36.2 129.016 34.936 129.016 33.112C129.016 31.32 127.848 30.04 126.2 30.04C124.536 30.04 123.384 31.32 123.384 33.112ZM133.006 37H131.902V29.256H132.862L132.99 30.36C133.374 29.544 134.238 29.048 135.326 29.048C136.542 29.048 137.454 29.688 137.822 30.696C138.174 29.688 139.118 29.048 140.366 29.048C142.046 29.048 143.15 30.136 143.15 31.928V37H142.078V32.152C142.078 30.824 141.342 30.04 140.158 30.04C138.862 30.04 138.094 31.016 138.094 32.216V37H137.006V32.136C137.006 30.824 136.254 30.056 135.086 30.056C133.79 30.056 133.006 31.016 133.006 32.2V37ZM145.371 40.376V29.256H146.331L146.443 30.824C146.987 29.624 148.075 29.048 149.371 29.048C151.611 29.048 152.955 30.76 152.955 33.096C152.955 35.432 151.659 37.192 149.371 37.192C148.059 37.192 147.019 36.632 146.475 35.512V40.376H145.371ZM146.491 33.128C146.491 34.904 147.483 36.2 149.179 36.2C150.859 36.2 151.835 34.904 151.835 33.128C151.835 31.336 150.859 30.056 149.179 30.056C147.483 30.056 146.491 31.336 146.491 33.128ZM154.171 33.128C154.171 30.76 155.835 29.048 158.107 29.048C160.379 29.048 162.043 30.76 162.043 33.128C162.043 35.48 160.379 37.192 158.107 37.192C155.835 37.192 154.171 35.48 154.171 33.128ZM155.291 33.112C155.291 34.936 156.443 36.2 158.107 36.2C159.755 36.2 160.923 34.936 160.923 33.112C160.923 31.32 159.755 30.04 158.107 30.04C156.443 30.04 155.291 31.32 155.291 33.112ZM169.061 29.256H170.165V37H169.205L169.061 35.688C168.629 36.584 167.557 37.192 166.341 37.192C164.517 37.192 163.525 35.944 163.525 34.056V29.24H164.645V33.704C164.645 35.544 165.461 36.2 166.693 36.2C168.181 36.2 169.061 35.208 169.061 33.368V29.256ZM173.569 37H172.465V29.256H173.424L173.585 30.6C174.097 29.608 175.121 29.048 176.241 29.048C178.369 29.048 179.249 30.312 179.249 32.264V37H178.145V32.504C178.145 30.696 177.329 30.056 176.049 30.056C174.465 30.056 173.569 31.208 173.569 32.952V37ZM184.489 37.192C182.233 37.192 180.905 35.464 180.905 33.144C180.905 30.808 182.233 29.048 184.537 29.048C185.817 29.048 186.841 29.608 187.385 30.728V25.336H188.489V37H187.529L187.417 35.416C186.873 36.616 185.785 37.192 184.489 37.192ZM184.681 36.184C186.377 36.184 187.369 34.904 187.369 33.112C187.369 31.336 186.377 30.04 184.681 30.04C183.001 30.04 182.025 31.336 182.025 33.112C182.025 34.904 183.001 36.184 184.681 36.184ZM194.041 37.192C191.769 37.192 190.249 35.56 190.249 33.128C190.249 30.712 191.753 29.048 193.961 29.048C196.057 29.048 197.481 30.536 197.481 32.728V33.272H191.321C191.401 35.16 192.393 36.248 194.057 36.248C195.321 36.248 196.137 35.704 196.425 34.68H197.481C197.065 36.312 195.865 37.192 194.041 37.192ZM193.961 29.992C192.505 29.992 191.545 30.952 191.353 32.472H196.377C196.377 30.984 195.417 29.992 193.961 29.992ZM202.286 37.192C200.03 37.192 198.702 35.464 198.702 33.144C198.702 30.808 200.03 29.048 202.334 29.048C203.614 29.048 204.638 29.608 205.182 30.728V25.336H206.286V37H205.326L205.214 35.416C204.67 36.616 203.582 37.192 202.286 37.192ZM202.478 36.184C204.174 36.184 205.166 34.904 205.166 33.112C205.166 31.336 204.174 30.04 202.478 30.04C200.798 30.04 199.822 31.336 199.822 33.112C199.822 34.904 200.798 36.184 202.478 36.184Z" fill="black"/>
<path d="M97.344 16H95.296V4.304L99.76 4.304C102.416 4.304 103.968 5.648 103.968 7.952C103.968 9.52 103.232 10.64 101.856 11.2L104.08 16H101.84L99.856 11.632L97.344 11.632V16ZM97.344 6.128V9.824L99.76 9.824C101.056 9.824 101.824 9.136 101.824 7.952C101.824 6.784 101.056 6.128 99.76 6.128H97.344ZM108.7 16.208C106.348 16.208 104.7 14.496 104.7 12.048C104.7 9.568 106.316 7.856 108.636 7.856C111.004 7.856 112.508 9.44 112.508 11.904V12.496L106.556 12.512C106.7 13.904 107.436 14.608 108.732 14.608C109.804 14.608 110.508 14.192 110.732 13.44H112.54C112.204 15.168 110.764 16.208 108.7 16.208ZM108.652 9.456C107.5 9.456 106.796 10.08 106.604 11.264L110.572 11.264C110.572 10.176 109.82 9.456 108.652 9.456ZM115.471 16L112.911 8.096H114.943L115.983 11.488C116.159 12.112 116.319 12.8 116.463 13.536C116.607 12.768 116.751 12.272 117.007 11.488L118.095 8.096L120.079 8.096L121.135 11.488C121.231 11.808 121.551 12.992 121.647 13.52C121.775 12.928 122.031 11.984 122.175 11.488L123.231 8.096H125.295L122.559 16H120.735L119.647 12.576C119.327 11.536 119.151 10.784 119.087 10.384C119.007 10.752 118.863 11.312 118.463 12.608L117.375 16H115.471ZM128.438 16.208C126.758 16.208 125.734 15.232 125.734 13.744C125.734 12.288 126.79 11.376 128.662 11.232L131.03 11.056V10.88C131.03 9.808 130.39 9.376 129.398 9.376C128.246 9.376 127.606 9.856 127.606 10.688H125.942C125.942 8.976 127.35 7.856 129.494 7.856C131.622 7.856 132.934 9.008 132.934 11.2V16H131.222L131.078 14.832C130.742 15.648 129.67 16.208 128.438 16.208ZM129.078 14.736C130.278 14.736 131.046 14.016 131.046 12.8V12.384L129.398 12.512C128.182 12.624 127.718 13.024 127.718 13.664C127.718 14.384 128.198 14.736 129.078 14.736ZM139.812 8.064V9.872L139.092 9.872C137.684 9.872 136.804 10.624 136.804 12.16V16H134.852V8.112H136.692L136.804 9.264C137.14 8.48 137.892 7.952 138.948 7.952C139.22 7.952 139.492 7.984 139.812 8.064ZM144.115 16.208C141.827 16.208 140.403 14.528 140.403 12.08C140.403 9.616 141.843 7.856 144.227 7.856C145.331 7.856 146.307 8.32 146.803 9.104V4.096L148.739 4.096V16H146.947L146.819 14.768C146.339 15.68 145.315 16.208 144.115 16.208ZM144.547 14.416C145.907 14.416 146.787 13.44 146.787 12.016C146.787 10.592 145.907 9.6 144.547 9.6C143.187 9.6 142.355 10.608 142.355 12.016C142.355 13.424 143.187 14.416 144.547 14.416ZM150.166 13.6H152.022C152.038 14.288 152.55 14.72 153.446 14.72C154.358 14.72 154.854 14.352 154.854 13.776C154.854 13.376 154.646 13.088 153.942 12.928L152.518 12.592C151.094 12.272 150.406 11.6 150.406 10.336C150.406 8.784 151.718 7.856 153.542 7.856C155.318 7.856 156.518 8.88 156.534 10.416H154.678C154.662 9.744 154.214 9.312 153.462 9.312C152.694 9.312 152.246 9.664 152.246 10.256C152.246 10.704 152.598 10.992 153.27 11.152L154.694 11.488C156.022 11.792 156.694 12.4 156.694 13.616C156.694 15.216 155.334 16.208 153.382 16.208C151.414 16.208 150.166 15.152 150.166 13.6ZM173.452 10.144C173.452 13.696 171.116 16.192 167.756 16.192C164.412 16.192 162.108 13.712 162.108 10.144C162.108 6.592 164.428 4.096 167.772 4.096C171.116 4.096 173.452 6.576 173.452 10.144ZM171.292 10.144C171.292 7.648 169.916 6.064 167.772 6.064C165.628 6.064 164.252 7.648 164.252 10.144C164.252 12.64 165.628 14.224 167.772 14.224C169.916 14.224 171.292 12.608 171.292 10.144ZM177.311 16L174.175 8.096H176.255L177.631 11.728C177.967 12.672 178.239 13.488 178.335 13.92C178.447 13.424 178.735 12.592 179.071 11.728L180.511 8.096H182.527L179.231 16H177.311ZM186.794 16.208C184.442 16.208 182.794 14.496 182.794 12.048C182.794 9.568 184.41 7.856 186.73 7.856C189.098 7.856 190.602 9.44 190.602 11.904V12.496L184.65 12.512C184.794 13.904 185.53 14.608 186.826 14.608C187.898 14.608 188.602 14.192 188.826 13.44L190.634 13.44C190.298 15.168 188.858 16.208 186.794 16.208ZM186.746 9.456C185.594 9.456 184.89 10.08 184.698 11.264H188.666C188.666 10.176 187.914 9.456 186.746 9.456ZM197.124 8.064V9.872H196.404C194.996 9.872 194.116 10.624 194.116 12.16V16H192.164V8.112H194.004L194.116 9.264C194.452 8.48 195.204 7.952 196.26 7.952C196.532 7.952 196.804 7.984 197.124 8.064ZM202.022 6.192V4.304L210.918 4.304V6.192L207.494 6.192V16L205.446 16V6.192L202.022 6.192ZM213.172 6.512C212.5 6.512 211.972 5.984 211.972 5.328C211.972 4.672 212.5 4.16 213.172 4.16C213.812 4.16 214.34 4.672 214.34 5.328C214.34 5.984 213.812 6.512 213.172 6.512ZM212.196 16V8.096H214.148V16H212.196ZM218.116 16H216.164V8.096H217.956L218.116 9.024C218.516 8.368 219.316 7.856 220.452 7.856C221.652 7.856 222.484 8.448 222.9 9.36C223.3 8.448 224.228 7.856 225.428 7.856C227.348 7.856 228.404 9.008 228.404 10.832V16H226.468V11.344C226.468 10.208 225.86 9.616 224.932 9.616C223.988 9.616 223.268 10.224 223.268 11.52V16H221.316V11.328C221.316 10.224 220.724 9.632 219.796 9.632C218.868 9.632 218.116 10.24 218.116 11.52V16ZM233.857 16.208C231.505 16.208 229.857 14.496 229.857 12.048C229.857 9.568 231.473 7.856 233.793 7.856C236.161 7.856 237.665 9.44 237.665 11.904V12.496L231.713 12.512C231.857 13.904 232.593 14.608 233.889 14.608C234.961 14.608 235.665 14.192 235.889 13.44H237.697C237.361 15.168 235.921 16.208 233.857 16.208ZM233.809 9.456C232.657 9.456 231.953 10.08 231.761 11.264H235.729C235.729 10.176 234.977 9.456 233.809 9.456Z" fill="black"/>
<path d="M112.544 58H111.392V46.544H112.56L118.864 56.08V46.544H120V58H118.864L112.544 48.464V58ZM122.014 54.128C122.014 51.76 123.678 50.048 125.95 50.048C128.222 50.048 129.886 51.76 129.886 54.128C129.886 56.48 128.222 58.192 125.95 58.192C123.678 58.192 122.014 56.48 122.014 54.128ZM123.134 54.112C123.134 55.936 124.286 57.2 125.95 57.2C127.598 57.2 128.766 55.936 128.766 54.112C128.766 52.32 127.598 51.04 125.95 51.04C124.286 51.04 123.134 52.32 123.134 54.112ZM132.756 58H131.652V50.256H132.612L132.772 51.6C133.284 50.608 134.308 50.048 135.428 50.048C137.556 50.048 138.436 51.312 138.436 53.264V58H137.332V53.504C137.332 51.696 136.516 51.056 135.236 51.056C133.652 51.056 132.756 52.208 132.756 53.952V58ZM140.508 54.288V53.296H145.148V54.288H140.508ZM152.236 58.176C149.036 58.176 146.86 55.792 146.86 52.272C146.86 48.752 149.068 46.352 152.3 46.352C154.764 46.352 156.7 47.84 157.164 50.112H155.932C155.452 48.464 154.044 47.456 152.252 47.456C149.74 47.456 148.06 49.376 148.06 52.272C148.06 55.152 149.74 57.072 152.252 57.072C154.06 57.072 155.5 56.096 155.996 54.56H157.228C156.7 56.72 154.7 58.176 152.236 58.176ZM158.436 54.128C158.436 51.76 160.1 50.048 162.372 50.048C164.644 50.048 166.308 51.76 166.308 54.128C166.308 56.48 164.644 58.192 162.372 58.192C160.1 58.192 158.436 56.48 158.436 54.128ZM159.556 54.112C159.556 55.936 160.708 57.2 162.372 57.2C164.02 57.2 165.188 55.936 165.188 54.112C165.188 52.32 164.02 51.04 162.372 51.04C160.708 51.04 159.556 52.32 159.556 54.112ZM169.178 58H168.074V50.256H169.034L169.162 51.36C169.546 50.544 170.41 50.048 171.498 50.048C172.714 50.048 173.626 50.688 173.994 51.696C174.346 50.688 175.29 50.048 176.538 50.048C178.218 50.048 179.322 51.136 179.322 52.928V58H178.25V53.152C178.25 51.824 177.514 51.04 176.33 51.04C175.034 51.04 174.266 52.016 174.266 53.216V58H173.178V53.136C173.178 51.824 172.426 51.056 171.258 51.056C169.962 51.056 169.178 52.016 169.178 53.2V58ZM181.543 61.376V50.256H182.503L182.615 51.824C183.159 50.624 184.247 50.048 185.543 50.048C187.783 50.048 189.127 51.76 189.127 54.096C189.127 56.432 187.831 58.192 185.543 58.192C184.231 58.192 183.191 57.632 182.647 56.512V61.376H181.543ZM182.663 54.128C182.663 55.904 183.655 57.2 185.351 57.2C187.031 57.2 188.007 55.904 188.007 54.128C188.007 52.336 187.031 51.056 185.351 51.056C183.655 51.056 182.663 52.336 182.663 54.128ZM190.342 54.128C190.342 51.76 192.006 50.048 194.278 50.048C196.55 50.048 198.214 51.76 198.214 54.128C198.214 56.48 196.55 58.192 194.278 58.192C192.006 58.192 190.342 56.48 190.342 54.128ZM191.462 54.112C191.462 55.936 192.614 57.2 194.278 57.2C195.926 57.2 197.094 55.936 197.094 54.112C197.094 52.32 195.926 51.04 194.278 51.04C192.614 51.04 191.462 52.32 191.462 54.112ZM205.233 50.256H206.337V58H205.377L205.233 56.688C204.801 57.584 203.729 58.192 202.513 58.192C200.689 58.192 199.697 56.944 199.697 55.056V50.24H200.817V54.704C200.817 56.544 201.633 57.2 202.865 57.2C204.353 57.2 205.233 56.208 205.233 54.368V50.256ZM209.74 58H208.636V50.256H209.596L209.756 51.6C210.268 50.608 211.292 50.048 212.412 50.048C214.54 50.048 215.42 51.312 215.42 53.264V58H214.316V53.504C214.316 51.696 213.5 51.056 212.22 51.056C210.636 51.056 209.74 52.208 209.74 53.952V58ZM220.661 58.192C218.405 58.192 217.077 56.464 217.077 54.144C217.077 51.808 218.405 50.048 220.709 50.048C221.989 50.048 223.013 50.608 223.557 51.728V46.336H224.661V58H223.701L223.589 56.416C223.045 57.616 221.957 58.192 220.661 58.192ZM220.853 57.184C222.549 57.184 223.541 55.904 223.541 54.112C223.541 52.336 222.549 51.04 220.853 51.04C219.173 51.04 218.197 52.336 218.197 54.112C218.197 55.904 219.173 57.184 220.853 57.184ZM230.213 58.192C227.941 58.192 226.421 56.56 226.421 54.128C226.421 51.712 227.924 50.048 230.133 50.048C232.229 50.048 233.653 51.536 233.653 53.728V54.272H227.493C227.573 56.16 228.565 57.248 230.229 57.248C231.493 57.248 232.309 56.704 232.597 55.68H233.653C233.237 57.312 232.037 58.192 230.213 58.192ZM230.133 50.992C228.677 50.992 227.717 51.952 227.525 53.472H232.549C232.549 51.984 231.589 50.992 230.133 50.992ZM238.458 58.192C236.202 58.192 234.874 56.464 234.874 54.144C234.874 51.808 236.202 50.048 238.506 50.048C239.786 50.048 240.81 50.608 241.354 51.728V46.336H242.458V58L241.498 58L241.386 56.416C240.842 57.616 239.754 58.192 238.458 58.192ZM238.65 57.184C240.346 57.184 241.338 55.904 241.338 54.112C241.338 52.336 240.346 51.04 238.65 51.04C236.97 51.04 235.994 52.336 235.994 54.112C235.994 55.904 236.97 57.184 238.65 57.184Z" fill="black"/>
<circle cx="98.5" cy="31.5" r="4.5" fill="#3B9DF8"/>
<circle cx="98.5" cy="51.5" r="4.5" fill="#0A2488"/>
</svg>
