<svg width="31" height="31" viewBox="0 0 31 31" fill="none" xmlns="http://www.w3.org/2000/svg">
<g id="Group">
<path id="Vector" fill-rule="evenodd" clip-rule="evenodd" d="M0.5 15V9C0.5 4.758 0.5 2.6355 1.8185 1.3185C3.1355 -8.9407e-08 5.258 0 9.5 0H21.5C25.742 0 27.8645 -8.9407e-08 29.1815 1.3185C30.5 2.6355 30.5 4.758 30.5 9V15C30.5 19.242 30.5 21.3645 29.1815 22.6815C28.2125 23.652 26.8085 23.9085 24.4445 23.976C24.4395 22.8395 24.0319 21.7415 23.294 20.877C23.2507 20.8264 23.2244 20.7634 23.219 20.697C23.1281 19.5559 22.6338 18.4846 21.8245 17.675C21.0152 16.8655 19.944 16.3707 18.803 16.2795C18.7366 16.2742 18.6736 16.2479 18.623 16.2045C17.7518 15.4621 16.6446 15.0543 15.5 15.0543C14.3554 15.0543 13.2482 15.4621 12.377 16.2045C12.3264 16.2479 12.2634 16.2742 12.197 16.2795C11.0557 16.3704 9.98415 16.865 9.17458 17.6746C8.36501 18.4841 7.8704 19.5557 7.7795 20.697C7.77417 20.7634 7.74791 20.8264 7.7045 20.877C6.96717 21.7417 6.56008 22.8396 6.5555 23.976C4.1915 23.9085 2.7875 23.652 1.8185 22.6815C0.5 21.3645 0.5 19.242 0.5 15ZM9.875 6C9.875 5.70163 9.99353 5.41548 10.2045 5.2045C10.4155 4.99353 10.7016 4.875 11 4.875H20C20.2984 4.875 20.5845 4.99353 20.7955 5.2045C21.0065 5.41548 21.125 5.70163 21.125 6C21.125 6.29837 21.0065 6.58452 20.7955 6.79549C20.5845 7.00647 20.2984 7.125 20 7.125H11C10.7016 7.125 10.4155 7.00647 10.2045 6.79549C9.99353 6.58452 9.875 6.29837 9.875 6ZM8 10.125C7.70163 10.125 7.41548 10.2435 7.2045 10.4545C6.99353 10.6655 6.875 10.9516 6.875 11.25C6.875 11.5484 6.99353 11.8345 7.2045 12.0455C7.41548 12.2565 7.70163 12.375 8 12.375H23C23.2984 12.375 23.5845 12.2565 23.7955 12.0455C24.0065 11.8345 24.125 11.5484 24.125 11.25C24.125 10.9516 24.0065 10.6655 23.7955 10.4545C23.5845 10.2435 23.2984 10.125 23 10.125H8Z" fill="url(#paint0_linear_412_318)"/>
<path id="Vector_2" fill-rule="evenodd" clip-rule="evenodd" d="M17.165 17.9176C16.7007 17.5214 16.1104 17.3037 15.5 17.3037C14.8896 17.3037 14.2993 17.5214 13.835 17.9176C13.4242 18.2676 12.9135 18.4791 12.3755 18.5221C11.7672 18.5705 11.1961 18.8342 10.7647 19.2658C10.3334 19.6974 10.07 20.2687 10.022 20.8771C9.98 21.4141 9.767 21.9241 9.4175 22.3366C9.0221 22.8006 8.80493 23.3904 8.80493 24.0001C8.80493 24.6097 9.0221 25.1995 9.4175 25.6636C9.7685 26.0746 9.98 26.5861 10.022 27.1231C10.0701 27.7316 10.3336 28.3031 10.7653 28.7348C11.197 29.1664 11.7684 29.43 12.377 29.4781C12.914 29.5201 13.4255 29.7316 13.8365 30.0811C14.3006 30.4765 14.8903 30.6936 15.5 30.6936C16.1097 30.6936 16.6994 30.4765 17.1635 30.0811C17.5743 29.731 18.085 29.5195 18.623 29.4766C19.2313 29.4285 19.8026 29.1652 20.2342 28.7338C20.6659 28.3025 20.9296 27.7314 20.978 27.1231C21.0205 26.5852 21.2315 26.0745 21.581 25.6636C21.9768 25.1994 22.1942 24.6093 22.1942 23.9993C22.1942 23.3893 21.9768 22.7992 21.581 22.3351C21.231 21.9243 21.0194 21.4135 20.9765 20.8756C20.9281 20.2675 20.6646 19.6966 20.2333 19.2652C19.802 18.8339 19.2311 18.5704 18.623 18.5221C18.085 18.4791 17.5758 18.2676 17.165 17.9176ZM18.518 23.3221C18.6276 23.2216 18.7162 23.1005 18.7787 22.9656C18.8412 22.8307 18.8763 22.6848 18.8821 22.5363C18.8878 22.3877 18.8641 22.2395 18.8122 22.1002C18.7604 21.9609 18.6814 21.8333 18.5799 21.7246C18.4785 21.616 18.3565 21.5286 18.221 21.4674C18.0855 21.4062 17.9393 21.3725 17.7907 21.3682C17.6421 21.3638 17.4941 21.389 17.3553 21.4422C17.2165 21.4954 17.0896 21.5755 16.982 21.6781L14.537 23.9611L14.018 23.4781C13.7994 23.2777 13.5106 23.1718 13.2143 23.1833C12.918 23.1948 12.6383 23.3228 12.4359 23.5394C12.2334 23.7561 12.1247 24.0439 12.1334 24.3402C12.142 24.6366 12.2673 24.9176 12.482 25.1221L13.7675 26.3221C13.9759 26.5167 14.2504 26.625 14.5355 26.625C14.8206 26.625 15.0951 26.5167 15.3035 26.3221L18.518 23.3221Z" fill="url(#paint1_linear_412_318)"/>
</g>
<defs>
<linearGradient id="paint0_linear_412_318" x1="11.2285" y1="-22.5081" x2="57.2244" y2="10.0663" gradientUnits="userSpaceOnUse">
<stop stop-color="#000F7A"/>
<stop offset="1" stop-color="#59C7F6"/>
</linearGradient>
<linearGradient id="paint1_linear_412_318" x1="13.5932" y1="4.73359" x2="36.9393" y2="17.9468" gradientUnits="userSpaceOnUse">
<stop stop-color="#000F7A"/>
<stop offset="1" stop-color="#59C7F6"/>
</linearGradient>
</defs>
</svg>
