<svg width="252" height="252" viewBox="0 0 252 252" fill="none" xmlns="http://www.w3.org/2000/svg">
<g id="Isolation_Mode" clip-path="url(#clip0_591_307)">
<path id="Vector" d="M126 0.991516C126 0.991516 126 126 0.991516 126C126 126 126 251.009 126 251.009C126 251.009 126 126 251.009 126C126 126 126 0.991516 126 0.991516Z" stroke="black" stroke-linejoin="round"/>
<path id="Vector_2" d="M37.5977 37.5977C37.5977 37.5977 126 126 37.5977 214.382C126 125.98 214.382 214.382 214.382 214.382C214.382 214.382 125.98 125.98 214.382 37.5977C125.98 126 37.5977 37.5977 37.5977 37.5977Z" stroke="black" stroke-linejoin="round"/>
<path id="Vector_3" d="M75.9292 11.4617C75.9292 11.4617 126 126 11.4617 176.071C126 126 176.071 240.558 176.071 240.558C176.071 240.558 126 126.02 240.558 75.949C126 126 75.9292 11.4617 75.9292 11.4617Z" stroke="black" stroke-linejoin="round"/>
<path id="Vector_4" d="M9.59772 80.4108C9.59772 80.4108 126 126 80.3909 242.402C125.98 126 242.382 171.609 242.382 171.609C242.382 171.609 125.98 126.02 171.589 9.61755C126 126 9.59772 80.4108 9.59772 80.4108Z" stroke="black" stroke-linejoin="round"/>
<path id="Vector_5" d="M126 82.3145C126 82.3145 126 126 82.3145 126C126 126 126 169.686 126 169.686C126 169.686 126 126 169.686 126C126 126 126 82.3145 126 82.3145Z" fill="black"/>
</g>
<defs>
<clipPath id="clip0_591_307">
<rect width="252" height="252" fill="white"/>
</clipPath>
</defs>
</svg>
