<svg width="24" height="25" viewBox="0 0 24 25" fill="none" xmlns="http://www.w3.org/2000/svg">
<g id="solar:settings-linear">
<g id="Group">
<path id="Vector" d="M12 15.5C13.6569 15.5 15 14.1569 15 12.5C15 10.8431 13.6569 9.5 12 9.5C10.3431 9.5 9 10.8431 9 12.5C9 14.1569 10.3431 15.5 12 15.5Z" stroke="black" stroke-width="1.5"/>
<path id="Vector_2" d="M13.765 2.652C13.398 2.5 12.932 2.5 12 2.5C11.068 2.5 10.602 2.5 10.235 2.652C9.99217 2.75251 9.77154 2.8999 9.58572 3.08572C9.39989 3.27155 9.25251 3.49218 9.15199 3.735C9.05999 3.958 9.02299 4.219 9.00899 4.598C9.00276 4.87199 8.92699 5.1399 8.7888 5.37657C8.65062 5.61324 8.45454 5.81091 8.21899 5.951C7.97989 6.08504 7.71064 6.1561 7.43653 6.1575C7.16242 6.1589 6.89245 6.09059 6.65199 5.959C6.31599 5.781 6.07299 5.683 5.83199 5.651C5.30631 5.58187 4.77469 5.72431 4.35399 6.047C4.03999 6.29 3.80599 6.693 3.33999 7.5C2.87399 8.307 2.63999 8.71 2.58899 9.105C2.55463 9.36545 2.57191 9.63012 2.63986 9.88389C2.70781 10.1377 2.82508 10.3756 2.98499 10.584C3.13299 10.776 3.33999 10.937 3.66099 11.139C4.13399 11.436 4.43799 11.942 4.43799 12.5C4.43799 13.058 4.13399 13.564 3.66099 13.86C3.33999 14.063 3.13199 14.224 2.98499 14.416C2.82508 14.6244 2.70781 14.8623 2.63986 15.1161C2.57191 15.3699 2.55463 15.6345 2.58899 15.895C2.64099 16.289 2.87399 16.693 3.33899 17.5C3.80599 18.307 4.03899 18.71 4.35399 18.953C4.56243 19.1129 4.80033 19.2302 5.0541 19.2981C5.30787 19.3661 5.57254 19.3834 5.83299 19.349C6.07299 19.317 6.31599 19.219 6.65199 19.041C6.89245 18.9094 7.16242 18.8411 7.43653 18.8425C7.71064 18.8439 7.97989 18.915 8.21899 19.049C8.70199 19.329 8.98899 19.844 9.00899 20.402C9.02299 20.782 9.05899 21.042 9.15199 21.265C9.25251 21.5078 9.39989 21.7284 9.58572 21.9143C9.77154 22.1001 9.99217 22.2475 10.235 22.348C10.602 22.5 11.068 22.5 12 22.5C12.932 22.5 13.398 22.5 13.765 22.348C14.0078 22.2475 14.2284 22.1001 14.4143 21.9143C14.6001 21.7284 14.7475 21.5078 14.848 21.265C14.94 21.042 14.977 20.782 14.991 20.402C15.011 19.844 15.298 19.328 15.781 19.049C16.0201 18.915 16.2894 18.8439 16.5635 18.8425C16.8376 18.8411 17.1075 18.9094 17.348 19.041C17.684 19.219 17.927 19.317 18.167 19.349C18.4274 19.3834 18.6921 19.3661 18.9459 19.2981C19.1997 19.2302 19.4376 19.1129 19.646 18.953C19.961 18.711 20.194 18.307 20.66 17.5C21.126 16.693 21.36 16.29 21.411 15.895C21.4454 15.6345 21.4281 15.3699 21.3601 15.1161C21.2922 14.8623 21.1749 14.6244 21.015 14.416C20.867 14.224 20.66 14.063 20.339 13.861C20.1047 13.7186 19.9105 13.519 19.7746 13.2809C19.6387 13.0428 19.5655 12.7741 19.562 12.5C19.562 11.942 19.866 11.436 20.339 11.14C20.66 10.937 20.868 10.776 21.015 10.584C21.1749 10.3756 21.2922 10.1377 21.3601 9.88389C21.4281 9.63012 21.4454 9.36545 21.411 9.105C21.359 8.711 21.126 8.307 20.661 7.5C20.194 6.693 19.961 6.29 19.646 6.047C19.4376 5.88709 19.1997 5.76981 18.9459 5.70187C18.6921 5.63392 18.4274 5.61664 18.167 5.651C17.927 5.683 17.684 5.781 17.347 5.959C17.1067 6.09042 16.8369 6.15862 16.563 6.15722C16.289 6.15582 16.02 6.08486 15.781 5.951C15.5454 5.81091 15.3494 5.61324 15.2112 5.37657C15.073 5.1399 14.9972 4.87199 14.991 4.598C14.977 4.218 14.941 3.958 14.848 3.735C14.7475 3.49218 14.6001 3.27155 14.4143 3.08572C14.2284 2.8999 14.0078 2.75251 13.765 2.652Z" stroke="black" stroke-width="1.5"/>
</g>
</g>
</svg>
