<svg width="16" height="16" viewBox="0 0 16 16" fill="none" xmlns="http://www.w3.org/2000/svg">
<g id="solar:info-circle-bold">
<path id="Vector" fill-rule="evenodd" clip-rule="evenodd" d="M14.6667 8.00006C14.6667 11.6821 11.682 14.6667 8.00001 14.6667C4.31801 14.6667 1.33334 11.6821 1.33334 8.00006C1.33334 4.31806 4.31801 1.33339 8.00001 1.33339C11.682 1.33339 14.6667 4.31806 14.6667 8.00006ZM8.00001 11.8334C8.13262 11.8334 8.25979 11.7807 8.35356 11.6869C8.44733 11.5932 8.50001 11.466 8.50001 11.3334V7.33339C8.50001 7.20078 8.44733 7.0736 8.35356 6.97984C8.25979 6.88607 8.13262 6.83339 8.00001 6.83339C7.8674 6.83339 7.74022 6.88607 7.64646 6.97984C7.55269 7.0736 7.50001 7.20078 7.50001 7.33339V11.3334C7.50001 11.6094 7.72401 11.8334 8.00001 11.8334ZM8.00001 4.66672C8.17682 4.66672 8.34639 4.73696 8.47141 4.86198C8.59644 4.98701 8.66668 5.15658 8.66668 5.33339C8.66668 5.5102 8.59644 5.67977 8.47141 5.80479C8.34639 5.92982 8.17682 6.00006 8.00001 6.00006C7.8232 6.00006 7.65363 5.92982 7.52861 5.80479C7.40358 5.67977 7.33334 5.5102 7.33334 5.33339C7.33334 5.15658 7.40358 4.98701 7.52861 4.86198C7.65363 4.73696 7.8232 4.66672 8.00001 4.66672Z" fill="#D6D6D6"/>
</g>
</svg>
