<svg width="20" height="21" viewBox="0 0 20 21" fill="none" xmlns="http://www.w3.org/2000/svg">
<g id="solar:add-circle-bold">
<path id="Vector" fill-rule="evenodd" clip-rule="evenodd" d="M9.99999 18.8333C14.6025 18.8333 18.3333 15.1025 18.3333 10.5C18.3333 5.89749 14.6025 2.16666 9.99999 2.16666C5.39749 2.16666 1.66666 5.89749 1.66666 10.5C1.66666 15.1025 5.39749 18.8333 9.99999 18.8333ZM10.625 7.99999C10.625 7.83423 10.5591 7.67526 10.4419 7.55805C10.3247 7.44084 10.1657 7.37499 9.99999 7.37499C9.83423 7.37499 9.67526 7.44084 9.55805 7.55805C9.44084 7.67526 9.37499 7.83423 9.37499 7.99999V9.87499H7.49999C7.33423 9.87499 7.17526 9.94084 7.05805 10.058C6.94084 10.1753 6.87499 10.3342 6.87499 10.5C6.87499 10.6657 6.94084 10.8247 7.05805 10.9419C7.17526 11.0591 7.33423 11.125 7.49999 11.125H9.37499V13C9.37499 13.1657 9.44084 13.3247 9.55805 13.4419C9.67526 13.5591 9.83423 13.625 9.99999 13.625C10.1657 13.625 10.3247 13.5591 10.4419 13.4419C10.5591 13.3247 10.625 13.1657 10.625 13V11.125H12.5C12.6657 11.125 12.8247 11.0591 12.9419 10.9419C13.0591 10.8247 13.125 10.6657 13.125 10.5C13.125 10.3342 13.0591 10.1753 12.9419 10.058C12.8247 9.94084 12.6657 9.87499 12.5 9.87499H10.625V7.99999Z" fill="url(#paint0_linear_665_364)"/>
</g>
<defs>
<linearGradient id="paint0_linear_665_364" x1="7.62692" y1="-13.4796" x2="36.6871" y2="2.96826" gradientUnits="userSpaceOnUse">
<stop stop-color="#000F7A"/>
<stop offset="1" stop-color="#59C7F6"/>
</linearGradient>
</defs>
</svg>
