<svg width="31" height="30" viewBox="0 0 31 30" fill="none" xmlns="http://www.w3.org/2000/svg">
<path id="Vector" fill-rule="evenodd" clip-rule="evenodd" d="M2.696 2.196C0.5 4.395 0.5 7.929 0.5 15C0.5 22.071 0.5 25.6065 2.696 27.8025C4.895 30 8.429 30 15.5 30C22.571 30 26.1065 30 28.3025 27.8025C30.5 25.608 30.5 22.071 30.5 15C30.5 7.929 30.5 4.3935 28.3025 2.196C26.108 0 22.571 0 15.5 0C8.429 0 4.8935 0 2.696 2.196ZM18.125 12C18.125 12.621 18.629 13.125 19.25 13.125H20.285L17.2655 16.1445C17.2307 16.1794 17.1893 16.2071 17.1437 16.226C17.0982 16.2449 17.0493 16.2547 17 16.2547C16.9507 16.2547 16.9018 16.2449 16.8563 16.226C16.8107 16.2071 16.7693 16.1794 16.7345 16.1445L14.3555 13.7655C13.8633 13.2736 13.1959 12.9973 12.5 12.9973C11.8041 12.9973 11.1367 13.2736 10.6445 13.7655L7.205 17.205C7.09447 17.308 7.00582 17.4322 6.94433 17.5702C6.88284 17.7082 6.84978 17.8572 6.84711 18.0082C6.84445 18.1593 6.87223 18.3093 6.92882 18.4494C6.9854 18.5895 7.06961 18.7167 7.17644 18.8236C7.28327 18.9304 7.41052 19.0146 7.5506 19.0712C7.69069 19.1278 7.84073 19.1556 7.99178 19.1529C8.14284 19.1502 8.29181 19.1172 8.42981 19.0557C8.56781 18.9942 8.69201 18.9055 8.795 18.795L12.2345 15.3555C12.2693 15.3206 12.3107 15.2929 12.3563 15.274C12.4018 15.2551 12.4507 15.2453 12.5 15.2453C12.5493 15.2453 12.5982 15.2551 12.6437 15.274C12.6893 15.2929 12.7307 15.3206 12.7655 15.3555L15.1445 17.7345C15.6367 18.2264 16.3041 18.5027 17 18.5027C17.6959 18.5027 18.3633 18.2264 18.8555 17.7345L21.875 14.7165V15.75C21.875 16.0484 21.9935 16.3345 22.2045 16.5455C22.4155 16.7565 22.7016 16.875 23 16.875C23.2984 16.875 23.5845 16.7565 23.7955 16.5455C24.0065 16.3345 24.125 16.0484 24.125 15.75V12C24.125 11.7016 24.0065 11.4155 23.7955 11.2045C23.5845 10.9935 23.2984 10.875 23 10.875H19.25C18.9516 10.875 18.6655 10.9935 18.4545 11.2045C18.2435 11.4155 18.125 11.7016 18.125 12Z" fill="url(#paint0_linear_412_312)"/>
<defs>
<linearGradient id="paint0_linear_412_312" x1="11.2285" y1="-28.1633" x2="63.5367" y2="1.44289" gradientUnits="userSpaceOnUse">
<stop stop-color="#000F7A"/>
<stop offset="1" stop-color="#59C7F6"/>
</linearGradient>
</defs>
</svg>
