<svg width="31" height="32" viewBox="0 0 31 32" fill="none" xmlns="http://www.w3.org/2000/svg">
<path id="Vector" fill-rule="evenodd" clip-rule="evenodd" d="M15.578 0.875H15.422C14.0735 0.875 12.95 0.875 12.059 0.995C11.117 1.121 10.2665 1.4 9.584 2.0825C8.9 2.7665 8.621 3.617 8.495 4.5575C8.4095 5.198 8.384 6.7265 8.378 8.0375C5.345 8.138 3.5225 8.492 2.258 9.758C0.5 11.5145 0.5 14.3435 0.5 20C0.5 25.6565 0.5 28.4855 2.258 30.242C4.0145 32 6.8435 32 12.5 32H18.5C24.1565 32 26.9855 32 28.742 30.242C30.5 28.4855 30.5 25.6565 30.5 20C30.5 14.3435 30.5 11.5145 28.742 9.758C27.4775 8.492 25.655 8.138 22.622 8.039C22.616 6.7265 22.592 5.198 22.505 4.559C22.379 3.617 22.1 2.7665 21.416 2.084C20.7335 1.4 19.883 1.121 18.941 0.995C18.05 0.875 16.925 0.875 15.578 0.875ZM20.372 8.003C20.3645 6.7325 20.3435 5.366 20.276 4.8575C20.1815 4.166 20.021 3.869 19.826 3.674C19.631 3.479 19.334 3.3185 18.641 3.224C17.918 3.128 16.946 3.125 15.5 3.125C14.054 3.125 13.082 3.128 12.3575 3.2255C11.666 3.3185 11.369 3.479 11.174 3.6755C10.979 3.8705 10.8185 4.166 10.724 4.8575C10.6565 5.3675 10.634 6.7325 10.628 8.003C11.2145 8 11.84 8 12.5 8H18.5C19.1615 8 19.7855 8 20.372 8.003ZM15.5 12.875C15.7984 12.875 16.0845 12.9935 16.2955 13.2045C16.5065 13.4155 16.625 13.7016 16.625 14V14.015C18.2585 14.426 19.625 15.7145 19.625 17.4995C19.625 17.7979 19.5065 18.084 19.2955 18.295C19.0845 18.506 18.7984 18.6245 18.5 18.6245C18.2016 18.6245 17.9155 18.506 17.7045 18.295C17.4935 18.084 17.375 17.7979 17.375 17.4995C17.375 16.9235 16.736 16.1255 15.5 16.1255C14.264 16.1255 13.625 16.9235 13.625 17.4995C13.625 18.0755 14.264 18.875 15.5 18.875C17.5775 18.875 19.625 20.315 19.625 22.5005C19.625 24.2855 18.2585 25.5725 16.625 25.985V26C16.625 26.2984 16.5065 26.5845 16.2955 26.7955C16.0845 27.0065 15.7984 27.125 15.5 27.125C15.2016 27.125 14.9155 27.0065 14.7045 26.7955C14.4935 26.5845 14.375 26.2984 14.375 26V25.985C12.7415 25.574 11.375 24.2855 11.375 22.5005C11.375 22.2021 11.4935 21.916 11.7045 21.705C11.9155 21.494 12.2016 21.3755 12.5 21.3755C12.7984 21.3755 13.0845 21.494 13.2955 21.705C13.5065 21.916 13.625 22.2021 13.625 22.5005C13.625 23.0765 14.264 23.8745 15.5 23.8745C16.736 23.8745 17.375 23.0765 17.375 22.5005C17.375 21.9245 16.736 21.125 15.5 21.125C13.4225 21.125 11.375 19.685 11.375 17.4995C11.375 15.7145 12.7415 14.426 14.375 14.015V14C14.375 13.7016 14.4935 13.4155 14.7045 13.2045C14.9155 12.9935 15.2016 12.875 15.5 12.875Z" fill="url(#paint0_linear_412_326)"/>
<defs>
<linearGradient id="paint0_linear_412_326" x1="11.2285" y1="-28.3444" x2="64.4534" y2="0.69173" gradientUnits="userSpaceOnUse">
<stop stop-color="#000F7A"/>
<stop offset="1" stop-color="#59C7F6"/>
</linearGradient>
</defs>
</svg>
