<svg width="31" height="30" viewBox="0 0 31 30" fill="none" xmlns="http://www.w3.org/2000/svg">
<path id="Vector" fill-rule="evenodd" clip-rule="evenodd" d="M30.5 15C30.5 23.2845 23.7845 30 15.5 30C13.1 30 10.832 29.436 8.82202 28.434C8.29106 28.1596 7.67813 28.0886 7.09852 28.2345L3.75952 29.1285C3.42903 29.2167 3.08115 29.2164 2.75081 29.1276C2.42047 29.0389 2.11929 28.8648 1.87749 28.6228C1.6357 28.3809 1.4618 28.0796 1.37325 27.7492C1.2847 27.4188 1.28462 27.0709 1.37302 26.7405L2.26552 23.4015C2.41068 22.8222 2.3392 22.2098 2.06452 21.6795C1.03197 19.6045 0.496347 17.3177 0.500019 15C0.500019 6.7155 7.21552 0 15.5 0C23.7845 0 30.5 6.7155 30.5 15ZM15.5 7.875C15.7984 7.875 16.0845 7.99353 16.2955 8.2045C16.5065 8.41548 16.625 8.70163 16.625 9V9.015C18.2585 9.4275 19.625 10.7145 19.625 12.4995C19.625 12.7979 19.5065 13.084 19.2955 13.295C19.0845 13.506 18.7984 13.6245 18.5 13.6245C18.2017 13.6245 17.9155 13.506 17.7045 13.295C17.4935 13.084 17.375 12.7979 17.375 12.4995C17.375 11.9235 16.736 11.1255 15.5 11.1255C14.264 11.1255 13.625 11.9235 13.625 12.4995C13.625 13.0755 14.264 13.875 15.5 13.875C17.5775 13.875 19.625 15.315 19.625 17.5005C19.625 19.2855 18.2585 20.574 16.625 20.985V21C16.625 21.2984 16.5065 21.5845 16.2955 21.7955C16.0845 22.0065 15.7984 22.125 15.5 22.125C15.2016 22.125 14.9155 22.0065 14.7045 21.7955C14.4935 21.5845 14.375 21.2984 14.375 21V20.985C12.7415 20.574 11.375 19.2855 11.375 17.5005C11.375 17.2021 11.4935 16.916 11.7045 16.705C11.9155 16.494 12.2016 16.3755 12.5 16.3755C12.7984 16.3755 13.0845 16.494 13.2955 16.705C13.5065 16.916 13.625 17.2021 13.625 17.5005C13.625 18.0765 14.264 18.8745 15.5 18.8745C16.736 18.8745 17.375 18.0765 17.375 17.5005C17.375 16.9245 16.736 16.125 15.5 16.125C13.4225 16.125 11.375 14.685 11.375 12.4995C11.375 10.7145 12.7415 9.4275 14.375 9.015V9C14.375 8.70163 14.4935 8.41548 14.7045 8.2045C14.9155 7.99353 15.2016 7.875 15.5 7.875Z" fill="url(#paint0_linear_412_332)"/>
<defs>
<linearGradient id="paint0_linear_412_332" x1="11.2285" y1="-28.1633" x2="63.5367" y2="1.44292" gradientUnits="userSpaceOnUse">
<stop stop-color="#000F7A"/>
<stop offset="1" stop-color="#59C7F6"/>
</linearGradient>
</defs>
</svg>
