<svg width="31" height="30" viewBox="0 0 31 30" fill="none" xmlns="http://www.w3.org/2000/svg">
<g id="Group">
<path id="Vector" fill-rule="evenodd" clip-rule="evenodd" d="M0.375244 13.875C0.65901 10.1021 2.35808 6.57582 5.13198 4.00276C7.90589 1.42969 11.5497 -6.22987e-05 15.3332 2.03596e-09C14.0882 2.03596e-09 12.9782 0.546 12.0632 1.3815C11.1557 2.2125 10.3892 3.3735 9.76824 4.7445C9.14424 6.1245 8.65824 7.7385 8.32974 9.489C8.06197 10.9371 7.90252 12.4032 7.85274 13.875H0.375244ZM0.375244 16.125H7.85274C7.90674 17.628 8.06724 19.107 8.32974 20.511C8.65974 22.2615 9.14424 23.8755 9.76824 25.2555C10.3892 26.6265 11.1557 27.7875 12.0632 28.6185C12.9782 29.454 14.0882 30 15.3332 30C7.42824 30 0.949744 23.8845 0.375244 16.125Z" fill="url(#paint0_linear_412_357)"/>
<path id="Vector_2" d="M15.3332 2.09253C14.9207 2.09253 14.3882 2.26803 13.7687 2.83503C13.1447 3.40653 12.5192 4.30203 11.9672 5.52153C11.4182 6.73353 10.9727 8.19603 10.6667 9.83103C10.4267 11.118 10.2767 12.483 10.2227 13.875H20.4437C20.3948 12.518 20.2464 11.1664 19.9997 9.83103C19.6937 8.19603 19.2497 6.73353 18.6992 5.52153C18.1472 4.30203 17.5232 3.40653 16.8992 2.83653C16.2782 2.26803 15.7457 2.09253 15.3332 2.09253ZM10.6667 20.169C10.9727 21.804 11.4182 23.2665 11.9672 24.4785C12.5192 25.698 13.1447 26.5935 13.7672 27.1635C14.3882 27.732 14.9222 27.9075 15.3332 27.9075C15.7457 27.9075 16.2782 27.732 16.8977 27.165C17.5232 26.5935 18.1472 25.698 18.6992 24.4785C19.2482 23.2665 19.6937 21.804 19.9997 20.169C20.2412 18.882 20.3912 17.517 20.4437 16.125H10.2227C10.2752 17.517 10.4252 18.882 10.6667 20.169Z" fill="url(#paint1_linear_412_357)"/>
<path id="Vector_3" d="M15.3333 8.9602e-08C16.5798 8.9602e-08 17.6883 0.546 18.6033 1.3815C19.5108 2.2125 20.2788 3.3735 20.8983 4.7445C21.5238 6.1245 22.0083 7.7385 22.3368 9.489C22.5993 10.893 22.7598 12.372 22.8138 13.875H30.2913C30.0078 10.102 28.3089 6.57549 25.5349 4.00236C22.7609 1.42922 19.1169 -0.000413245 15.3333 8.9602e-08ZM22.3368 20.511C22.0083 22.2615 21.5238 23.8755 20.8983 25.2555C20.2788 26.6265 19.5108 27.7875 18.6033 28.6185C17.6883 29.454 16.5798 30 15.3333 30C23.2383 30 29.7168 23.8845 30.2913 16.125H22.8138C22.764 17.5968 22.6045 19.0629 22.3368 20.511Z" fill="url(#paint2_linear_412_357)"/>
</g>
<defs>
<linearGradient id="paint0_linear_412_357" x1="5.72446" y1="-28.1633" x2="37.6202" y2="-19.1621" gradientUnits="userSpaceOnUse">
<stop stop-color="#000F7A"/>
<stop offset="1" stop-color="#59C7F6"/>
</linearGradient>
<linearGradient id="paint1_linear_412_357" x1="13.8779" y1="-22.142" x2="36.2832" y2="-17.121" gradientUnits="userSpaceOnUse">
<stop stop-color="#000F7A"/>
<stop offset="1" stop-color="#59C7F6"/>
</linearGradient>
<linearGradient id="paint2_linear_412_357" x1="20.6825" y1="-28.1633" x2="52.5782" y2="-19.1621" gradientUnits="userSpaceOnUse">
<stop stop-color="#000F7A"/>
<stop offset="1" stop-color="#59C7F6"/>
</linearGradient>
</defs>
</svg>
